TITLE ""
FILE "LR_black_phrase_10.mp3" MP3
  TRACK 01 AUDIO
    TITLE "LR_black_phrase_10_0001"
    INDEX 01 00:00:00
  TRACK 02 AUDIO
    TITLE "LR_black_phrase_10_0002"
    INDEX 01 00:00:14
  TRACK 03 AUDIO
    TITLE "LR_black_phrase_10_0003"
    INDEX 01 00:01:37
  TRACK 04 AUDIO
    TITLE "LR_black_phrase_10_0004"
    INDEX 01 00:01:70
  TRACK 05 AUDIO
    TITLE "LR_black_phrase_10_0005"
    INDEX 01 00:04:37
  TRACK 06 AUDIO
    TITLE "LR_black_phrase_10_0006"
    INDEX 01 00:05:37
  TRACK 07 AUDIO
    TITLE "LR_black_phrase_10_0007"
    INDEX 01 00:07:59
  TRACK 08 AUDIO
    TITLE "LR_black_phrase_10_0008"
    INDEX 01 00:08:24
  TRACK 09 AUDIO
    TITLE "LR_black_phrase_10_0009"
    INDEX 01 00:11:02
  TRACK 10 AUDIO
    TITLE "LR_black_phrase_10_0010"
    INDEX 01 00:11:30
  TRACK 11 AUDIO
    TITLE "LR_black_phrase_10_0011"
    INDEX 01 00:14:10
  TRACK 12 AUDIO
    TITLE "LR_black_phrase_10_0012"
    INDEX 01 00:15:14
  TRACK 13 AUDIO
    TITLE "LR_black_phrase_10_0013"
    INDEX 01 00:16:47
  TRACK 14 AUDIO
    TITLE "LR_black_phrase_10_0014"
    INDEX 01 00:17:11
  TRACK 15 AUDIO
    TITLE "LR_black_phrase_10_0015"
    INDEX 01 00:18:65
  TRACK 16 AUDIO
    TITLE "LR_black_phrase_10_0016"
    INDEX 01 00:19:64
  TRACK 17 AUDIO
    TITLE "LR_black_phrase_10_0017"
    INDEX 01 00:22:43
  TRACK 18 AUDIO
    TITLE "LR_black_phrase_10_0018"
    INDEX 01 00:23:07
  TRACK 19 AUDIO
    TITLE "LR_black_phrase_10_0019"
    INDEX 01 00:25:47
  TRACK 20 AUDIO
    TITLE "LR_black_phrase_10_0020"
    INDEX 01 00:26:00
  TRACK 21 AUDIO
    TITLE "LR_black_phrase_10_0021"
    INDEX 01 00:28:40
  TRACK 22 AUDIO
    TITLE "LR_black_phrase_10_0022"
    INDEX 01 00:29:43
  TRACK 23 AUDIO
    TITLE "LR_black_phrase_10_0023"
    INDEX 01 00:30:47
  TRACK 24 AUDIO
    TITLE "LR_black_phrase_10_0024"
    INDEX 01 00:31:11
  TRACK 25 AUDIO
    TITLE "LR_black_phrase_10_0025"
    INDEX 01 00:32:34
  TRACK 26 AUDIO
    TITLE "LR_black_phrase_10_0026"
    INDEX 01 00:33:33
  TRACK 27 AUDIO
    TITLE "LR_black_phrase_10_0027"
    INDEX 01 00:36:39
  TRACK 28 AUDIO
    TITLE "LR_black_phrase_10_0028"
    INDEX 01 00:37:04
  TRACK 29 AUDIO
    TITLE "LR_black_phrase_10_0029"
    INDEX 01 00:40:00
  TRACK 30 AUDIO
    TITLE "LR_black_phrase_10_0030"
    INDEX 01 00:40:31
  TRACK 31 AUDIO
    TITLE "LR_black_phrase_10_0031"
    INDEX 01 00:43:28
  TRACK 32 AUDIO
    TITLE "LR_black_phrase_10_0032"
    INDEX 01 00:44:33
  TRACK 33 AUDIO
    TITLE "LR_black_phrase_10_0033"
    INDEX 01 00:45:56
  TRACK 34 AUDIO
    TITLE "LR_black_phrase_10_0034"
    INDEX 01 00:46:22
  TRACK 35 AUDIO
    TITLE "LR_black_phrase_10_0035"
    INDEX 01 00:48:58
  TRACK 36 AUDIO
    TITLE "LR_black_phrase_10_0036"
    INDEX 01 00:49:56
  TRACK 37 AUDIO
    TITLE "LR_black_phrase_10_0037"
    INDEX 01 00:51:59
  TRACK 38 AUDIO
    TITLE "LR_black_phrase_10_0038"
    INDEX 01 00:52:23
  TRACK 39 AUDIO
    TITLE "LR_black_phrase_10_0039"
    INDEX 01 00:54:35
  TRACK 40 AUDIO
    TITLE "LR_black_phrase_10_0040"
    INDEX 01 00:54:63
  TRACK 41 AUDIO
    TITLE "LR_black_phrase_10_0041"
    INDEX 01 00:57:00
  TRACK 42 AUDIO
    TITLE "LR_black_phrase_10_0042"
    INDEX 01 00:58:04
  TRACK 43 AUDIO
    TITLE "LR_black_phrase_10_0043"
    INDEX 01 00:59:25
  TRACK 44 AUDIO
    TITLE "LR_black_phrase_10_0044"
    INDEX 01 00:59:62
  TRACK 45 AUDIO
    TITLE "LR_black_phrase_10_0045"
    INDEX 01 01:02:15
  TRACK 46 AUDIO
    TITLE "LR_black_phrase_10_0046"
    INDEX 01 01:03:15
  TRACK 47 AUDIO
    TITLE "LR_black_phrase_10_0047"
    INDEX 01 01:04:67
  TRACK 48 AUDIO
    TITLE "LR_black_phrase_10_0048"
    INDEX 01 01:05:31
  TRACK 49 AUDIO
    TITLE "LR_black_phrase_10_0049"
    INDEX 01 01:07:38
  TRACK 50 AUDIO
    TITLE "LR_black_phrase_10_0050"
    INDEX 01 01:07:65
  TRACK 51 AUDIO
    TITLE "LR_black_phrase_10_0051"
    INDEX 01 01:09:72
  TRACK 52 AUDIO
    TITLE "LR_black_phrase_10_0052"
    INDEX 01 01:11:01
  TRACK 53 AUDIO
    TITLE "LR_black_phrase_10_0053"
    INDEX 01 01:12:18
  TRACK 54 AUDIO
    TITLE "LR_black_phrase_10_0054"
    INDEX 01 01:12:57
  TRACK 55 AUDIO
    TITLE "LR_black_phrase_10_0055"
    INDEX 01 01:15:63
  TRACK 56 AUDIO
    TITLE "LR_black_phrase_10_0056"
    INDEX 01 01:16:64
  TRACK 57 AUDIO
    TITLE "LR_black_phrase_10_0057"
    INDEX 01 01:18:22
  TRACK 58 AUDIO
    TITLE "LR_black_phrase_10_0058"
    INDEX 01 01:18:61
  TRACK 59 AUDIO
    TITLE "LR_black_phrase_10_0059"
    INDEX 01 01:20:45
  TRACK 60 AUDIO
    TITLE "LR_black_phrase_10_0060"
    INDEX 01 01:20:72
  TRACK 61 AUDIO
    TITLE "LR_black_phrase_10_0061"
    INDEX 01 01:22:57
  TRACK 62 AUDIO
    TITLE "LR_black_phrase_10_0062"
    INDEX 01 01:23:61
  TRACK 63 AUDIO
    TITLE "LR_black_phrase_10_0063"
    INDEX 01 01:25:12
  TRACK 64 AUDIO
    TITLE "LR_black_phrase_10_0064"
    INDEX 01 01:25:52
  TRACK 65 AUDIO
    TITLE "LR_black_phrase_10_0065"
    INDEX 01 01:27:07
  TRACK 66 AUDIO
    TITLE "LR_black_phrase_10_0066"
    INDEX 01 01:28:05
  TRACK 67 AUDIO
    TITLE "LR_black_phrase_10_0067"
    INDEX 01 01:30:06
  TRACK 68 AUDIO
    TITLE "LR_black_phrase_10_0068"
    INDEX 01 01:30:45
  TRACK 69 AUDIO
    TITLE "LR_black_phrase_10_0069"
    INDEX 01 01:32:44
  TRACK 70 AUDIO
    TITLE "LR_black_phrase_10_0070"
    INDEX 01 01:32:73
  TRACK 71 AUDIO
    TITLE "LR_black_phrase_10_0071"
    INDEX 01 01:34:72
  TRACK 72 AUDIO
    TITLE "LR_black_phrase_10_0072"
    INDEX 01 01:36:01
  TRACK 73 AUDIO
    TITLE "LR_black_phrase_10_0073"
    INDEX 01 01:37:14
  TRACK 74 AUDIO
    TITLE "LR_black_phrase_10_0074"
    INDEX 01 01:37:53
  TRACK 75 AUDIO
    TITLE "LR_black_phrase_10_0075"
    INDEX 01 01:40:26
  TRACK 76 AUDIO
    TITLE "LR_black_phrase_10_0076"
    INDEX 01 01:41:25
  TRACK 77 AUDIO
    TITLE "LR_black_phrase_10_0077"
    INDEX 01 01:43:18
  TRACK 78 AUDIO
    TITLE "LR_black_phrase_10_0078"
    INDEX 01 01:43:57
  TRACK 79 AUDIO
    TITLE "LR_black_phrase_10_0079"
    INDEX 01 01:45:48
  TRACK 80 AUDIO
    TITLE "LR_black_phrase_10_0080"
    INDEX 01 01:46:03
  TRACK 81 AUDIO
    TITLE "LR_black_phrase_10_0081"
    INDEX 01 01:47:69
  TRACK 82 AUDIO
    TITLE "LR_black_phrase_10_0082"
    INDEX 01 01:48:72
  TRACK 83 AUDIO
    TITLE "LR_black_phrase_10_0083"
    INDEX 01 01:50:38
  TRACK 84 AUDIO
    TITLE "LR_black_phrase_10_0084"
    INDEX 01 01:51:00
  TRACK 85 AUDIO
    TITLE "LR_black_phrase_10_0085"
    INDEX 01 01:53:62
  TRACK 86 AUDIO
    TITLE "LR_black_phrase_10_0086"
    INDEX 01 01:54:61
  TRACK 87 AUDIO
    TITLE "LR_black_phrase_10_0087"
    INDEX 01 01:56:66
  TRACK 88 AUDIO
    TITLE "LR_black_phrase_10_0088"
    INDEX 01 01:57:30
  TRACK 89 AUDIO
    TITLE "LR_black_phrase_10_0089"
    INDEX 01 01:59:43
  TRACK 90 AUDIO
    TITLE "LR_black_phrase_10_0090"
    INDEX 01 01:59:74
  TRACK 91 AUDIO
    TITLE "LR_black_phrase_10_0091"
    INDEX 01 02:02:10
  TRACK 92 AUDIO
    TITLE "LR_black_phrase_10_0092"
    INDEX 01 02:03:15
  TRACK 93 AUDIO
    TITLE "LR_black_phrase_10_0093"
    INDEX 01 02:04:32
  TRACK 94 AUDIO
    TITLE "LR_black_phrase_10_0094"
    INDEX 01 02:04:73
  TRACK 95 AUDIO
    TITLE "LR_black_phrase_10_0095"
    INDEX 01 02:06:47
  TRACK 96 AUDIO
    TITLE "LR_black_phrase_10_0096"
    INDEX 01 02:07:44
  TRACK 97 AUDIO
    TITLE "LR_black_phrase_10_0097"
    INDEX 01 02:10:11
  TRACK 98 AUDIO
    TITLE "LR_black_phrase_10_0098"
    INDEX 01 02:10:50
  TRACK 99 AUDIO
    TITLE "LR_black_phrase_10_0099"
    INDEX 01 02:13:08
  TRACK 100 AUDIO
    TITLE "LR_black_phrase_10_0100"
    INDEX 01 02:13:37
  TRACK 101 AUDIO
    TITLE "LR_black_phrase_10_0101"
    INDEX 01 02:15:71
  TRACK 102 AUDIO
    TITLE "LR_black_phrase_10_0102"
    INDEX 01 02:16:73
  TRACK 103 AUDIO
    TITLE "LR_black_phrase_10_0103"
    INDEX 01 02:18:11
  TRACK 104 AUDIO
    TITLE "LR_black_phrase_10_0104"
    INDEX 01 02:18:48
  TRACK 105 AUDIO
    TITLE "LR_black_phrase_10_0105"
    INDEX 01 02:21:17
  TRACK 106 AUDIO
    TITLE "LR_black_phrase_10_0106"
    INDEX 01 02:22:16
  TRACK 107 AUDIO
    TITLE "LR_black_phrase_10_0107"
    INDEX 01 02:24:25
  TRACK 108 AUDIO
    TITLE "LR_black_phrase_10_0108"
    INDEX 01 02:24:64
  TRACK 109 AUDIO
    TITLE "LR_black_phrase_10_0109"
    INDEX 01 02:27:12
  TRACK 110 AUDIO
    TITLE "LR_black_phrase_10_0110"
    INDEX 01 02:27:33
  TRACK 111 AUDIO
    TITLE "LR_black_phrase_10_0111"
    INDEX 01 02:29:59
  TRACK 112 AUDIO
    TITLE "LR_black_phrase_10_0112"
    INDEX 01 02:30:55
  TRACK 113 AUDIO
    TITLE "LR_black_phrase_10_0113"
    INDEX 01 02:32:11
  TRACK 114 AUDIO
    TITLE "LR_black_phrase_10_0114"
    INDEX 01 02:32:46
  TRACK 115 AUDIO
    TITLE "LR_black_phrase_10_0115"
    INDEX 01 02:34:04
  TRACK 116 AUDIO
    TITLE "LR_black_phrase_10_0116"
    INDEX 01 02:35:03
  TRACK 117 AUDIO
    TITLE "LR_black_phrase_10_0117"
    INDEX 01 02:37:43
  TRACK 118 AUDIO
    TITLE "LR_black_phrase_10_0118"
    INDEX 01 02:38:02
  TRACK 119 AUDIO
    TITLE "LR_black_phrase_10_0119"
    INDEX 01 02:40:38
  TRACK 120 AUDIO
    TITLE "LR_black_phrase_10_0120"
    INDEX 01 02:40:55
  TRACK 121 AUDIO
    TITLE "LR_black_phrase_10_0121"
    INDEX 01 02:43:16
  TRACK 122 AUDIO
    TITLE "LR_black_phrase_10_0122"
    INDEX 01 02:44:10
  TRACK 123 AUDIO
    TITLE "LR_black_phrase_10_0123"
    INDEX 01 02:45:39
  TRACK 124 AUDIO
    TITLE "LR_black_phrase_10_0124"
    INDEX 01 02:46:01
  TRACK 125 AUDIO
    TITLE "LR_black_phrase_10_0125"
    INDEX 01 02:49:29
  TRACK 126 AUDIO
    TITLE "LR_black_phrase_10_0126"
    INDEX 01 02:50:28
  TRACK 127 AUDIO
    TITLE "LR_black_phrase_10_0127"
    INDEX 01 02:52:04
  TRACK 128 AUDIO
    TITLE "LR_black_phrase_10_0128"
    INDEX 01 02:52:35
  TRACK 129 AUDIO
    TITLE "LR_black_phrase_10_0129"
    INDEX 01 02:55:12
  TRACK 130 AUDIO
    TITLE "LR_black_phrase_10_0130"
    INDEX 01 02:55:35
  TRACK 131 AUDIO
    TITLE "LR_black_phrase_10_0131"
    INDEX 01 02:58:12
  TRACK 132 AUDIO
    TITLE "LR_black_phrase_10_0132"
    INDEX 01 02:59:12
  TRACK 133 AUDIO
    TITLE "LR_black_phrase_10_0133"
    INDEX 01 03:00:42
  TRACK 134 AUDIO
    TITLE "LR_black_phrase_10_0134"
    INDEX 01 03:01:05
  TRACK 135 AUDIO
    TITLE "LR_black_phrase_10_0135"
    INDEX 01 03:04:17
  TRACK 136 AUDIO
    TITLE "LR_black_phrase_10_0136"
    INDEX 01 03:05:16
  TRACK 137 AUDIO
    TITLE "LR_black_phrase_10_0137"
    INDEX 01 03:07:07
  TRACK 138 AUDIO
    TITLE "LR_black_phrase_10_0138"
    INDEX 01 03:07:42
  TRACK 139 AUDIO
    TITLE "LR_black_phrase_10_0139"
    INDEX 01 03:09:41
  TRACK 140 AUDIO
    TITLE "LR_black_phrase_10_0140"
    INDEX 01 03:09:65
  TRACK 141 AUDIO
    TITLE "LR_black_phrase_10_0141"
    INDEX 01 03:11:64
  TRACK 142 AUDIO
    TITLE "LR_black_phrase_10_0142"
    INDEX 01 03:12:63
  TRACK 143 AUDIO
    TITLE "LR_black_phrase_10_0143"
    INDEX 01 03:14:13
  TRACK 144 AUDIO
    TITLE "LR_black_phrase_10_0144"
    INDEX 01 03:14:50
  TRACK 145 AUDIO
    TITLE "LR_black_phrase_10_0145"
    INDEX 01 03:16:16
  TRACK 146 AUDIO
    TITLE "LR_black_phrase_10_0146"
    INDEX 01 03:17:15
  TRACK 147 AUDIO
    TITLE "LR_black_phrase_10_0147"
    INDEX 01 03:20:20
  TRACK 148 AUDIO
    TITLE "LR_black_phrase_10_0148"
    INDEX 01 03:20:53
  TRACK 149 AUDIO
    TITLE "LR_black_phrase_10_0149"
    INDEX 01 03:23:32
  TRACK 150 AUDIO
    TITLE "LR_black_phrase_10_0150"
    INDEX 01 03:23:51
  TRACK 151 AUDIO
    TITLE "LR_black_phrase_10_0151"
    INDEX 01 03:26:28
  TRACK 152 AUDIO
    TITLE "LR_black_phrase_10_0152"
    INDEX 01 03:27:24
  TRACK 153 AUDIO
    TITLE "LR_black_phrase_10_0153"
    INDEX 01 03:28:37
  TRACK 154 AUDIO
    TITLE "LR_black_phrase_10_0154"
    INDEX 01 03:28:74
  TRACK 155 AUDIO
    TITLE "LR_black_phrase_10_0155"
    INDEX 01 03:30:67
  TRACK 156 AUDIO
    TITLE "LR_black_phrase_10_0156"
    INDEX 01 03:31:66
  TRACK 157 AUDIO
    TITLE "LR_black_phrase_10_0157"
    INDEX 01 03:33:59
  TRACK 158 AUDIO
    TITLE "LR_black_phrase_10_0158"
    INDEX 01 03:34:20
  TRACK 159 AUDIO
    TITLE "LR_black_phrase_10_0159"
    INDEX 01 03:36:21
  TRACK 160 AUDIO
    TITLE "LR_black_phrase_10_0160"
    INDEX 01 03:36:42
  TRACK 161 AUDIO
    TITLE "LR_black_phrase_10_0161"
    INDEX 01 03:38:43
  TRACK 162 AUDIO
    TITLE "LR_black_phrase_10_0162"
    INDEX 01 03:39:42
  TRACK 163 AUDIO
    TITLE "LR_black_phrase_10_0163"
    INDEX 01 03:40:69
  TRACK 164 AUDIO
    TITLE "LR_black_phrase_10_0164"
    INDEX 01 03:41:28
  TRACK 165 AUDIO
    TITLE "LR_black_phrase_10_0165"
    INDEX 01 03:43:13
  TRACK 166 AUDIO
    TITLE "LR_black_phrase_10_0166"
    INDEX 01 03:44:12
  TRACK 167 AUDIO
    TITLE "LR_black_phrase_10_0167"
    INDEX 01 03:46:05
  TRACK 168 AUDIO
    TITLE "LR_black_phrase_10_0168"
    INDEX 01 03:46:41
  TRACK 169 AUDIO
    TITLE "LR_black_phrase_10_0169"
    INDEX 01 03:48:59
  TRACK 170 AUDIO
    TITLE "LR_black_phrase_10_0170"
    INDEX 01 03:49:06
  TRACK 171 AUDIO
    TITLE "LR_black_phrase_10_0171"
    INDEX 01 03:51:24
  TRACK 172 AUDIO
    TITLE "LR_black_phrase_10_0172"
    INDEX 01 03:52:18
  TRACK 173 AUDIO
    TITLE "LR_black_phrase_10_0173"
    INDEX 01 03:53:37
  TRACK 174 AUDIO
    TITLE "LR_black_phrase_10_0174"
    INDEX 01 03:53:74
  TRACK 175 AUDIO
    TITLE "LR_black_phrase_10_0175"
    INDEX 01 03:56:61
  TRACK 176 AUDIO
    TITLE "LR_black_phrase_10_0176"
    INDEX 01 03:57:70
  TRACK 177 AUDIO
    TITLE "LR_black_phrase_10_0177"
    INDEX 01 03:59:67
  TRACK 178 AUDIO
    TITLE "LR_black_phrase_10_0178"
    INDEX 01 04:00:25
  TRACK 179 AUDIO
    TITLE "LR_black_phrase_10_0179"
    INDEX 01 04:02:38
  TRACK 180 AUDIO
    TITLE "LR_black_phrase_10_0180"
    INDEX 01 04:02:63
  TRACK 181 AUDIO
    TITLE "LR_black_phrase_10_0181"
    INDEX 01 04:05:01
  TRACK 182 AUDIO
    TITLE "LR_black_phrase_10_0182"
    INDEX 01 04:06:08
  TRACK 183 AUDIO
    TITLE "LR_black_phrase_10_0183"
    INDEX 01 04:07:54
  TRACK 184 AUDIO
    TITLE "LR_black_phrase_10_0184"
    INDEX 01 04:08:13
  TRACK 185 AUDIO
    TITLE "LR_black_phrase_10_0185"
    INDEX 01 04:11:21
  TRACK 186 AUDIO
    TITLE "LR_black_phrase_10_0186"
    INDEX 01 04:12:18
  TRACK 187 AUDIO
    TITLE "LR_black_phrase_10_0187"
    INDEX 01 04:14:45
  TRACK 188 AUDIO
    TITLE "LR_black_phrase_10_0188"
    INDEX 01 04:15:03
  TRACK 189 AUDIO
    TITLE "LR_black_phrase_10_0189"
    INDEX 01 04:17:29
  TRACK 190 AUDIO
    TITLE "LR_black_phrase_10_0190"
    INDEX 01 04:17:47
  TRACK 191 AUDIO
    TITLE "LR_black_phrase_10_0191"
    INDEX 01 04:20:00
  TRACK 192 AUDIO
    TITLE "LR_black_phrase_10_0192"
    INDEX 01 04:20:69
  TRACK 193 AUDIO
    TITLE "LR_black_phrase_10_0193"
    INDEX 01 04:22:15
  TRACK 194 AUDIO
    TITLE "LR_black_phrase_10_0194"
    INDEX 01 04:22:54
  TRACK 195 AUDIO
    TITLE "LR_black_phrase_10_0195"
    INDEX 01 04:25:72
  TRACK 196 AUDIO
    TITLE "LR_black_phrase_10_0196"
    INDEX 01 04:26:71
  TRACK 197 AUDIO
    TITLE "LR_black_phrase_10_0197"
    INDEX 01 04:29:38
  TRACK 198 AUDIO
    TITLE "LR_black_phrase_10_0198"
    INDEX 01 04:30:01
  TRACK 199 AUDIO
    TITLE "LR_black_phrase_10_0199"
    INDEX 01 04:32:29
  TRACK 200 AUDIO
    TITLE "LR_black_phrase_10_0200"
    INDEX 01 04:32:48
  TRACK 201 AUDIO
    TITLE "LR_black_phrase_10_0201"
    INDEX 01 04:35:04
  TRACK 202 AUDIO
    TITLE "LR_black_phrase_10_0202"
    INDEX 01 04:36:03
  TRACK 203 AUDIO
    TITLE "LR_black_phrase_10_0203"
    INDEX 01 04:37:16
  TRACK 204 AUDIO
    TITLE "LR_black_phrase_10_0204"
    INDEX 01 04:37:52
  TRACK 205 AUDIO
    TITLE "LR_black_phrase_10_0205"
    INDEX 01 04:40:36
  TRACK 206 AUDIO
    TITLE "LR_black_phrase_10_0206"
    INDEX 01 04:41:32
  TRACK 207 AUDIO
    TITLE "LR_black_phrase_10_0207"
    INDEX 01 04:43:72
  TRACK 208 AUDIO
    TITLE "LR_black_phrase_10_0208"
    INDEX 01 04:44:36
  TRACK 209 AUDIO
    TITLE "LR_black_phrase_10_0209"
    INDEX 01 04:46:74
  TRACK 210 AUDIO
    TITLE "LR_black_phrase_10_0210"
    INDEX 01 04:47:30
  TRACK 211 AUDIO
    TITLE "LR_black_phrase_10_0211"
    INDEX 01 04:49:69
  TRACK 212 AUDIO
    TITLE "LR_black_phrase_10_0212"
    INDEX 01 04:51:01
  TRACK 213 AUDIO
    TITLE "LR_black_phrase_10_0213"
    INDEX 01 04:52:16
  TRACK 214 AUDIO
    TITLE "LR_black_phrase_10_0214"
    INDEX 01 04:52:55
  TRACK 215 AUDIO
    TITLE "LR_black_phrase_10_0215"
    INDEX 01 04:56:55
  TRACK 216 AUDIO
    TITLE "LR_black_phrase_10_0216"
    INDEX 01 04:57:48
  TRACK 217 AUDIO
    TITLE "LR_black_phrase_10_0217"
    INDEX 01 04:59:36
  TRACK 218 AUDIO
    TITLE "LR_black_phrase_10_0218"
    INDEX 01 04:59:73
  TRACK 219 AUDIO
    TITLE "LR_black_phrase_10_0219"
    INDEX 01 05:01:48
  TRACK 220 AUDIO
    TITLE "LR_black_phrase_10_0220"
    INDEX 01 05:02:03
  TRACK 221 AUDIO
    TITLE "LR_black_phrase_10_0221"
    INDEX 01 05:03:53
  TRACK 222 AUDIO
    TITLE "LR_black_phrase_10_0222"
    INDEX 01 05:04:58
  TRACK 223 AUDIO
    TITLE "LR_black_phrase_10_0223"
    INDEX 01 05:06:06
  TRACK 224 AUDIO
    TITLE "LR_black_phrase_10_0224"
    INDEX 01 05:06:45
  TRACK 225 AUDIO
    TITLE "LR_black_phrase_10_0225"
    INDEX 01 05:09:52
  TRACK 226 AUDIO
    TITLE "LR_black_phrase_10_0226"
    INDEX 01 05:10:51
  TRACK 227 AUDIO
    TITLE "LR_black_phrase_10_0227"
    INDEX 01 05:13:24
  TRACK 228 AUDIO
    TITLE "LR_black_phrase_10_0228"
    INDEX 01 05:13:63
  TRACK 229 AUDIO
    TITLE "LR_black_phrase_10_0229"
    INDEX 01 05:16:48
  TRACK 230 AUDIO
    TITLE "LR_black_phrase_10_0230"
    INDEX 01 05:17:04
  TRACK 231 AUDIO
    TITLE "LR_black_phrase_10_0231"
    INDEX 01 05:19:64
  TRACK 232 AUDIO
    TITLE "LR_black_phrase_10_0232"
    INDEX 01 05:20:67
  TRACK 233 AUDIO
    TITLE "LR_black_phrase_10_0233"
    INDEX 01 05:22:13
  TRACK 234 AUDIO
    TITLE "LR_black_phrase_10_0234"
    INDEX 01 05:22:52
  TRACK 235 AUDIO
    TITLE "LR_black_phrase_10_0235"
    INDEX 01 05:24:02
  TRACK 236 AUDIO
    TITLE "LR_black_phrase_10_0236"
    INDEX 01 05:25:04
  TRACK 237 AUDIO
    TITLE "LR_black_phrase_10_0237"
    INDEX 01 05:27:48
  TRACK 238 AUDIO
    TITLE "LR_black_phrase_10_0238"
    INDEX 01 05:28:10
  TRACK 239 AUDIO
    TITLE "LR_black_phrase_10_0239"
    INDEX 01 05:30:56
  TRACK 240 AUDIO
    TITLE "LR_black_phrase_10_0240"
    INDEX 01 05:31:10
  TRACK 241 AUDIO
    TITLE "LR_black_phrase_10_0241"
    INDEX 01 05:33:56
  TRACK 242 AUDIO
    TITLE "LR_black_phrase_10_0242"
    INDEX 01 05:34:61
  TRACK 243 AUDIO
    TITLE "LR_black_phrase_10_0243"
    INDEX 01 05:36:01
  TRACK 244 AUDIO
    TITLE "LR_black_phrase_10_0244"
    INDEX 01 05:36:41
  TRACK 245 AUDIO
    TITLE "LR_black_phrase_10_0245"
    INDEX 01 05:37:62
  TRACK 246 AUDIO
    TITLE "LR_black_phrase_10_0246"
    INDEX 01 05:38:53
  TRACK 247 AUDIO
    TITLE "LR_black_phrase_10_0247"
    INDEX 01 05:40:62
  TRACK 248 AUDIO
    TITLE "LR_black_phrase_10_0248"
    INDEX 01 05:41:22
  TRACK 249 AUDIO
    TITLE "LR_black_phrase_10_0249"
    INDEX 01 05:43:29
  TRACK 250 AUDIO
    TITLE "LR_black_phrase_10_0250"
    INDEX 01 05:43:56
  TRACK 251 AUDIO
    TITLE "LR_black_phrase_10_0251"
    INDEX 01 05:45:61
  TRACK 252 AUDIO
    TITLE "LR_black_phrase_10_0252"
    INDEX 01 05:46:63
  TRACK 253 AUDIO
    TITLE "LR_black_phrase_10_0253"
    INDEX 01 05:47:68
  TRACK 254 AUDIO
    TITLE "LR_black_phrase_10_0254"
    INDEX 01 05:48:32
  TRACK 255 AUDIO
    TITLE "LR_black_phrase_10_0255"
    INDEX 01 05:49:57
  TRACK 256 AUDIO
    TITLE "LR_black_phrase_10_0256"
    INDEX 01 05:50:56
  TRACK 257 AUDIO
    TITLE "LR_black_phrase_10_0257"
    INDEX 01 05:53:20
  TRACK 258 AUDIO
    TITLE "LR_black_phrase_10_0258"
    INDEX 01 05:53:61
  TRACK 259 AUDIO
    TITLE "LR_black_phrase_10_0259"
    INDEX 01 05:56:30
  TRACK 260 AUDIO
    TITLE "LR_black_phrase_10_0260"
    INDEX 01 05:56:59
  TRACK 261 AUDIO
    TITLE "LR_black_phrase_10_0261"
    INDEX 01 05:59:28
  TRACK 262 AUDIO
    TITLE "LR_black_phrase_10_0262"
    INDEX 01 06:00:31
  TRACK 263 AUDIO
    TITLE "LR_black_phrase_10_0263"
    INDEX 01 06:01:52
  TRACK 264 AUDIO
    TITLE "LR_black_phrase_10_0264"
    INDEX 01 06:02:19
  TRACK 265 AUDIO
    TITLE "LR_black_phrase_10_0265"
    INDEX 01 06:04:06
  TRACK 266 AUDIO
    TITLE "LR_black_phrase_10_0266"
    INDEX 01 06:05:05
  TRACK 267 AUDIO
    TITLE "LR_black_phrase_10_0267"
    INDEX 01 06:07:37
  TRACK 268 AUDIO
    TITLE "LR_black_phrase_10_0268"
    INDEX 01 06:08:01
  TRACK 269 AUDIO
    TITLE "LR_black_phrase_10_0269"
    INDEX 01 06:10:12
  TRACK 270 AUDIO
    TITLE "LR_black_phrase_10_0270"
    INDEX 01 06:10:42
  TRACK 271 AUDIO
    TITLE "LR_black_phrase_10_0271"
    INDEX 01 06:12:52
  TRACK 272 AUDIO
    TITLE "LR_black_phrase_10_0272"
    INDEX 01 06:13:57
  TRACK 273 AUDIO
    TITLE "LR_black_phrase_10_0273"
    INDEX 01 06:14:61
  TRACK 274 AUDIO
    TITLE "LR_black_phrase_10_0274"
    INDEX 01 06:15:23
  TRACK 275 AUDIO
    TITLE "LR_black_phrase_10_0275"
    INDEX 01 06:17:63
  TRACK 276 AUDIO
    TITLE "LR_black_phrase_10_0276"
    INDEX 01 06:18:59
  TRACK 277 AUDIO
    TITLE "LR_black_phrase_10_0277"
    INDEX 01 06:21:02
  TRACK 278 AUDIO
    TITLE "LR_black_phrase_10_0278"
    INDEX 01 06:21:41
  TRACK 279 AUDIO
    TITLE "LR_black_phrase_10_0279"
    INDEX 01 06:23:32
  TRACK 280 AUDIO
    TITLE "LR_black_phrase_10_0280"
    INDEX 01 06:23:64
  TRACK 281 AUDIO
    TITLE "LR_black_phrase_10_0281"
    INDEX 01 06:25:55
  TRACK 282 AUDIO
    TITLE "LR_black_phrase_10_0282"
    INDEX 01 06:26:62
  TRACK 283 AUDIO
    TITLE "LR_black_phrase_10_0283"
    INDEX 01 06:28:00
  TRACK 284 AUDIO
    TITLE "LR_black_phrase_10_0284"
    INDEX 01 06:28:37
  TRACK 285 AUDIO
    TITLE "LR_black_phrase_10_0285"
    INDEX 01 06:31:08
  TRACK 286 AUDIO
    TITLE "LR_black_phrase_10_0286"
    INDEX 01 06:32:02
  TRACK 287 AUDIO
    TITLE "LR_black_phrase_10_0287"
    INDEX 01 06:34:13
  TRACK 288 AUDIO
    TITLE "LR_black_phrase_10_0288"
    INDEX 01 06:34:54
  TRACK 289 AUDIO
    TITLE "LR_black_phrase_10_0289"
    INDEX 01 06:37:01
  TRACK 290 AUDIO
    TITLE "LR_black_phrase_10_0290"
    INDEX 01 06:37:31
  TRACK 291 AUDIO
    TITLE "LR_black_phrase_10_0291"
    INDEX 01 06:39:55
  TRACK 292 AUDIO
    TITLE "LR_black_phrase_10_0292"
    INDEX 01 06:40:58
  TRACK 293 AUDIO
    TITLE "LR_black_phrase_10_0293"
    INDEX 01 06:42:06
  TRACK 294 AUDIO
    TITLE "LR_black_phrase_10_0294"
    INDEX 01 06:42:45
  TRACK 295 AUDIO
    TITLE "LR_black_phrase_10_0295"
    INDEX 01 06:45:44
  TRACK 296 AUDIO
    TITLE "LR_black_phrase_10_0296"
    INDEX 01 06:46:41
  TRACK 297 AUDIO
    TITLE "LR_black_phrase_10_0297"
    INDEX 01 06:48:44
  TRACK 298 AUDIO
    TITLE "LR_black_phrase_10_0298"
    INDEX 01 06:49:08
  TRACK 299 AUDIO
    TITLE "LR_black_phrase_10_0299"
    INDEX 01 06:51:13
  TRACK 300 AUDIO
    TITLE "LR_black_phrase_10_0300"
    INDEX 01 06:51:42
  TRACK 301 AUDIO
    TITLE "LR_black_phrase_10_0301"
    INDEX 01 06:53:47
  TRACK 302 AUDIO
    TITLE "LR_black_phrase_10_0302"
    INDEX 01 06:54:51
  TRACK 303 AUDIO
    TITLE "LR_black_phrase_10_0303"
    INDEX 01 06:55:54
  TRACK 304 AUDIO
    TITLE "LR_black_phrase_10_0304"
    INDEX 01 06:56:20
  TRACK 305 AUDIO
    TITLE "LR_black_phrase_10_0305"
    INDEX 01 06:58:44
  TRACK 306 AUDIO
    TITLE "LR_black_phrase_10_0306"
    INDEX 01 06:59:38
  TRACK 307 AUDIO
    TITLE "LR_black_phrase_10_0307"
    INDEX 01 07:01:10
  TRACK 308 AUDIO
    TITLE "LR_black_phrase_10_0308"
    INDEX 01 07:01:47
  TRACK 309 AUDIO
    TITLE "LR_black_phrase_10_0309"
    INDEX 01 07:03:26
  TRACK 310 AUDIO
    TITLE "LR_black_phrase_10_0310"
    INDEX 01 07:03:50
  TRACK 311 AUDIO
    TITLE "LR_black_phrase_10_0311"
    INDEX 01 07:05:31
  TRACK 312 AUDIO
    TITLE "LR_black_phrase_10_0312"
    INDEX 01 07:06:26
  TRACK 313 AUDIO
    TITLE "LR_black_phrase_10_0313"
    INDEX 01 07:07:57
  TRACK 314 AUDIO
    TITLE "LR_black_phrase_10_0314"
    INDEX 01 07:08:17
  TRACK 315 AUDIO
    TITLE "LR_black_phrase_10_0315"
    INDEX 01 07:10:54
  TRACK 316 AUDIO
    TITLE "LR_black_phrase_10_0316"
    INDEX 01 07:11:53
  TRACK 317 AUDIO
    TITLE "LR_black_phrase_10_0317"
    INDEX 01 07:13:48
  TRACK 318 AUDIO
    TITLE "LR_black_phrase_10_0318"
    INDEX 01 07:14:08
  TRACK 319 AUDIO
    TITLE "LR_black_phrase_10_0319"
    INDEX 01 07:16:21
  TRACK 320 AUDIO
    TITLE "LR_black_phrase_10_0320"
    INDEX 01 07:16:50
  TRACK 321 AUDIO
    TITLE "LR_black_phrase_10_0321"
    INDEX 01 07:18:71
  TRACK 322 AUDIO
    TITLE "LR_black_phrase_10_0322"
    INDEX 01 07:19:70
  TRACK 323 AUDIO
    TITLE "LR_black_phrase_10_0323"
    INDEX 01 07:21:22
  TRACK 324 AUDIO
    TITLE "LR_black_phrase_10_0324"
    INDEX 01 07:21:55
  TRACK 325 AUDIO
    TITLE "LR_black_phrase_10_0325"
    INDEX 01 07:24:24
  TRACK 326 AUDIO
    TITLE "LR_black_phrase_10_0326"
    INDEX 01 07:25:24
  TRACK 327 AUDIO
    TITLE "LR_black_phrase_10_0327"
    INDEX 01 07:27:34
  TRACK 328 AUDIO
    TITLE "LR_black_phrase_10_0328"
    INDEX 01 07:27:70
  TRACK 329 AUDIO
    TITLE "LR_black_phrase_10_0329"
    INDEX 01 07:30:09
  TRACK 330 AUDIO
    TITLE "LR_black_phrase_10_0330"
    INDEX 01 07:30:31
  TRACK 331 AUDIO
    TITLE "LR_black_phrase_10_0331"
    INDEX 01 07:32:47
  TRACK 332 AUDIO
    TITLE "LR_black_phrase_10_0332"
    INDEX 01 07:33:43
  TRACK 333 AUDIO
    TITLE "LR_black_phrase_10_0333"
    INDEX 01 07:34:38
  TRACK 334 AUDIO
    TITLE "LR_black_phrase_10_0334"
    INDEX 01 07:34:74
  TRACK 335 AUDIO
    TITLE "LR_black_phrase_10_0335"
    INDEX 01 07:38:32
  TRACK 336 AUDIO
    TITLE "LR_black_phrase_10_0336"
    INDEX 01 07:39:34
  TRACK 337 AUDIO
    TITLE "LR_black_phrase_10_0337"
    INDEX 01 07:42:36
  TRACK 338 AUDIO
    TITLE "LR_black_phrase_10_0338"
    INDEX 01 07:42:71
  TRACK 339 AUDIO
    TITLE "LR_black_phrase_10_0339"
    INDEX 01 07:45:34
  TRACK 340 AUDIO
    TITLE "LR_black_phrase_10_0340"
    INDEX 01 07:45:58
  TRACK 341 AUDIO
    TITLE "LR_black_phrase_10_0341"
    INDEX 01 07:48:21
  TRACK 342 AUDIO
    TITLE "LR_black_phrase_10_0342"
    INDEX 01 07:49:20
  TRACK 343 AUDIO
    TITLE "LR_black_phrase_10_0343"
    INDEX 01 07:50:26
  TRACK 344 AUDIO
    TITLE "LR_black_phrase_10_0344"
    INDEX 01 07:50:65
  TRACK 345 AUDIO
    TITLE "LR_black_phrase_10_0345"
    INDEX 01 07:52:15
  TRACK 346 AUDIO
    TITLE "LR_black_phrase_10_0346"
    INDEX 01 07:53:12
  TRACK 347 AUDIO
    TITLE "LR_black_phrase_10_0347"
    INDEX 01 07:55:35
  TRACK 348 AUDIO
    TITLE "LR_black_phrase_10_0348"
    INDEX 01 07:55:66
  TRACK 349 AUDIO
    TITLE "LR_black_phrase_10_0349"
    INDEX 01 07:58:11
  TRACK 350 AUDIO
    TITLE "LR_black_phrase_10_0350"
    INDEX 01 07:58:31
  TRACK 351 AUDIO
    TITLE "LR_black_phrase_10_0351"
    INDEX 01 08:00:51
  TRACK 352 AUDIO
    TITLE "LR_black_phrase_10_0352"
    INDEX 01 08:01:45
  TRACK 353 AUDIO
    TITLE "LR_black_phrase_10_0353"
    INDEX 01 08:02:72
  TRACK 354 AUDIO
    TITLE "LR_black_phrase_10_0354"
    INDEX 01 08:03:34
  TRACK 355 AUDIO
    TITLE "LR_black_phrase_10_0355"
    INDEX 01 08:04:51
  TRACK 356 AUDIO
    TITLE "LR_black_phrase_10_0356"
    INDEX 01 08:05:53
  TRACK 357 AUDIO
    TITLE "LR_black_phrase_10_0357"
    INDEX 01 08:07:38
  TRACK 358 AUDIO
    TITLE "LR_black_phrase_10_0358"
    INDEX 01 08:07:71
  TRACK 359 AUDIO
    TITLE "LR_black_phrase_10_0359"
    INDEX 01 08:10:05
  TRACK 360 AUDIO
    TITLE "LR_black_phrase_10_0360"
    INDEX 01 08:10:26
  TRACK 361 AUDIO
    TITLE "LR_black_phrase_10_0361"
    INDEX 01 08:12:35
  TRACK 362 AUDIO
    TITLE "LR_black_phrase_10_0362"
    INDEX 01 08:13:31
  TRACK 363 AUDIO
    TITLE "LR_black_phrase_10_0363"
    INDEX 01 08:14:48
  TRACK 364 AUDIO
    TITLE "LR_black_phrase_10_0364"
    INDEX 01 08:15:16
  TRACK 365 AUDIO
    TITLE "LR_black_phrase_10_0365"
    INDEX 01 08:17:34
  TRACK 366 AUDIO
    TITLE "LR_black_phrase_10_0366"
    INDEX 01 08:18:34
  TRACK 367 AUDIO
    TITLE "LR_black_phrase_10_0367"
    INDEX 01 08:20:56
  TRACK 368 AUDIO
    TITLE "LR_black_phrase_10_0368"
    INDEX 01 08:21:12
  TRACK 369 AUDIO
    TITLE "LR_black_phrase_10_0369"
    INDEX 01 08:23:33
  TRACK 370 AUDIO
    TITLE "LR_black_phrase_10_0370"
    INDEX 01 08:23:54
  TRACK 371 AUDIO
    TITLE "LR_black_phrase_10_0371"
    INDEX 01 08:25:73
  TRACK 372 AUDIO
    TITLE "LR_black_phrase_10_0372"
    INDEX 01 08:26:68
  TRACK 373 AUDIO
    TITLE "LR_black_phrase_10_0373"
    INDEX 01 08:27:74
  TRACK 374 AUDIO
    TITLE "LR_black_phrase_10_0374"
    INDEX 01 08:28:32
  TRACK 375 AUDIO
    TITLE "LR_black_phrase_10_0375"
    INDEX 01 08:31:15
  TRACK 376 AUDIO
    TITLE "LR_black_phrase_10_0376"
    INDEX 01 08:32:12
  TRACK 377 AUDIO
    TITLE "LR_black_phrase_10_0377"
    INDEX 01 08:34:13
  TRACK 378 AUDIO
    TITLE "LR_black_phrase_10_0378"
    INDEX 01 08:34:48
  TRACK 379 AUDIO
    TITLE "LR_black_phrase_10_0379"
    INDEX 01 08:36:36
  TRACK 380 AUDIO
    TITLE "LR_black_phrase_10_0380"
    INDEX 01 08:36:61
  TRACK 381 AUDIO
    TITLE "LR_black_phrase_10_0381"
    INDEX 01 08:38:48
  TRACK 382 AUDIO
    TITLE "LR_black_phrase_10_0382"
    INDEX 01 08:39:53
  TRACK 383 AUDIO
    TITLE "LR_black_phrase_10_0383"
    INDEX 01 08:40:59
  TRACK 384 AUDIO
    TITLE "LR_black_phrase_10_0384"
    INDEX 01 08:41:19
  TRACK 385 AUDIO
    TITLE "LR_black_phrase_10_0385"
    INDEX 01 08:43:47
  TRACK 386 AUDIO
    TITLE "LR_black_phrase_10_0386"
    INDEX 01 08:44:49
  TRACK 387 AUDIO
    TITLE "LR_black_phrase_10_0387"
    INDEX 01 08:46:38
  TRACK 388 AUDIO
    TITLE "LR_black_phrase_10_0388"
    INDEX 01 08:46:71
  TRACK 389 AUDIO
    TITLE "LR_black_phrase_10_0389"
    INDEX 01 08:48:48
  TRACK 390 AUDIO
    TITLE "LR_black_phrase_10_0390"
    INDEX 01 08:48:68
  TRACK 391 AUDIO
    TITLE "LR_black_phrase_10_0391"
    INDEX 01 08:50:43
  TRACK 392 AUDIO
    TITLE "LR_black_phrase_10_0392"
    INDEX 01 08:51:41
  TRACK 393 AUDIO
    TITLE "LR_black_phrase_10_0393"
    INDEX 01 08:52:60
  TRACK 394 AUDIO
    TITLE "LR_black_phrase_10_0394"
    INDEX 01 08:53:24
  TRACK 395 AUDIO
    TITLE "LR_black_phrase_10_0395"
    INDEX 01 08:56:17
  TRACK 396 AUDIO
    TITLE "LR_black_phrase_10_0396"
    INDEX 01 08:57:16
  TRACK 397 AUDIO
    TITLE "LR_black_phrase_10_0397"
    INDEX 01 08:59:74
  TRACK 398 AUDIO
    TITLE "LR_black_phrase_10_0398"
    INDEX 01 09:00:34
  TRACK 399 AUDIO
    TITLE "LR_black_phrase_10_0399"
    INDEX 01 09:02:31
  TRACK 400 AUDIO
    TITLE "LR_black_phrase_10_0400"
    INDEX 01 09:02:53
  TRACK 401 AUDIO
    TITLE "LR_black_phrase_10_0401"
    INDEX 01 09:04:51
  TRACK 402 AUDIO
    TITLE "LR_black_phrase_10_0402"
    INDEX 01 09:05:57
  TRACK 403 AUDIO
    TITLE "LR_black_phrase_10_0403"
    INDEX 01 09:07:05
  TRACK 404 AUDIO
    TITLE "LR_black_phrase_10_0404"
    INDEX 01 09:07:44
  TRACK 405 AUDIO
    TITLE "LR_black_phrase_10_0405"
    INDEX 01 09:09:45
  TRACK 406 AUDIO
    TITLE "LR_black_phrase_10_0406"
    INDEX 01 09:10:42
  TRACK 407 AUDIO
    TITLE "LR_black_phrase_10_0407"
    INDEX 01 09:12:31
  TRACK 408 AUDIO
    TITLE "LR_black_phrase_10_0408"
    INDEX 01 09:12:73
  TRACK 409 AUDIO
    TITLE "LR_black_phrase_10_0409"
    INDEX 01 09:14:60
  TRACK 410 AUDIO
    TITLE "LR_black_phrase_10_0410"
    INDEX 01 09:15:16
  TRACK 411 AUDIO
    TITLE "LR_black_phrase_10_0411"
    INDEX 01 09:17:05
  TRACK 412 AUDIO
    TITLE "LR_black_phrase_10_0412"
    INDEX 01 09:18:10
  TRACK 413 AUDIO
    TITLE "LR_black_phrase_10_0413"
    INDEX 01 09:19:18
  TRACK 414 AUDIO
    TITLE "LR_black_phrase_10_0414"
    INDEX 01 09:19:57
  TRACK 415 AUDIO
    TITLE "LR_black_phrase_10_0415"
    INDEX 01 09:22:32
  TRACK 416 AUDIO
    TITLE "LR_black_phrase_10_0416"
    INDEX 01 09:23:31
  TRACK 417 AUDIO
    TITLE "LR_black_phrase_10_0417"
    INDEX 01 09:25:12
  TRACK 418 AUDIO
    TITLE "LR_black_phrase_10_0418"
    INDEX 01 09:25:50
  TRACK 419 AUDIO
    TITLE "LR_black_phrase_10_0419"
    INDEX 01 09:27:33
  TRACK 420 AUDIO
    TITLE "LR_black_phrase_10_0420"
    INDEX 01 09:27:64
  TRACK 421 AUDIO
    TITLE "LR_black_phrase_10_0421"
    INDEX 01 09:29:46
  TRACK 422 AUDIO
    TITLE "LR_black_phrase_10_0422"
    INDEX 01 09:30:51
  TRACK 423 AUDIO
    TITLE "LR_black_phrase_10_0423"
    INDEX 01 09:31:64
  TRACK 424 AUDIO
    TITLE "LR_black_phrase_10_0424"
    INDEX 01 09:32:30
  TRACK 425 AUDIO
    TITLE "LR_black_phrase_10_0425"
    INDEX 01 09:35:15
  TRACK 426 AUDIO
    TITLE "LR_black_phrase_10_0426"
    INDEX 01 09:36:16
  TRACK 427 AUDIO
    TITLE "LR_black_phrase_10_0427"
    INDEX 01 09:38:62
  TRACK 428 AUDIO
    TITLE "LR_black_phrase_10_0428"
    INDEX 01 09:39:26
  TRACK 429 AUDIO
    TITLE "LR_black_phrase_10_0429"
    INDEX 01 09:41:31
  TRACK 430 AUDIO
    TITLE "LR_black_phrase_10_0430"
    INDEX 01 09:41:60
  TRACK 431 AUDIO
    TITLE "LR_black_phrase_10_0431"
    INDEX 01 09:43:67
  TRACK 432 AUDIO
    TITLE "LR_black_phrase_10_0432"
    INDEX 01 09:44:73
  TRACK 433 AUDIO
    TITLE "LR_black_phrase_10_0433"
    INDEX 01 09:46:20
  TRACK 434 AUDIO
    TITLE "LR_black_phrase_10_0434"
    INDEX 01 09:46:60
  TRACK 435 AUDIO
    TITLE "LR_black_phrase_10_0435"
    INDEX 01 09:49:48
  TRACK 436 AUDIO
    TITLE "LR_black_phrase_10_0436"
    INDEX 01 09:50:48
  TRACK 437 AUDIO
    TITLE "LR_black_phrase_10_0437"
    INDEX 01 09:52:09
  TRACK 438 AUDIO
    TITLE "LR_black_phrase_10_0438"
    INDEX 01 09:52:48
  TRACK 439 AUDIO
    TITLE "LR_black_phrase_10_0439"
    INDEX 01 09:54:51
  TRACK 440 AUDIO
    TITLE "LR_black_phrase_10_0440"
    INDEX 01 09:55:06
  TRACK 441 AUDIO
    TITLE "LR_black_phrase_10_0441"
    INDEX 01 09:57:07
  TRACK 442 AUDIO
    TITLE "LR_black_phrase_10_0442"
    INDEX 01 09:58:10
  TRACK 443 AUDIO
    TITLE "LR_black_phrase_10_0443"
    INDEX 01 09:59:29
  TRACK 444 AUDIO
    TITLE "LR_black_phrase_10_0444"
    INDEX 01 09:59:74
  TRACK 445 AUDIO
    TITLE "LR_black_phrase_10_0445"
    INDEX 01 10:01:16
  TRACK 446 AUDIO
    TITLE "LR_black_phrase_10_0446"
    INDEX 01 10:02:16
  TRACK 447 AUDIO
    TITLE "LR_black_phrase_10_0447"
    INDEX 01 10:04:71
  TRACK 448 AUDIO
    TITLE "LR_black_phrase_10_0448"
    INDEX 01 10:05:35
  TRACK 449 AUDIO
    TITLE "LR_black_phrase_10_0449"
    INDEX 01 10:08:51
  TRACK 450 AUDIO
    TITLE "LR_black_phrase_10_0450"
    INDEX 01 10:09:06
  TRACK 451 AUDIO
    TITLE "LR_black_phrase_10_0451"
    INDEX 01 10:12:22
  TRACK 452 AUDIO
    TITLE "LR_black_phrase_10_0452"
    INDEX 01 10:13:25
  TRACK 453 AUDIO
    TITLE "LR_black_phrase_10_0453"
    INDEX 01 10:14:58
  TRACK 454 AUDIO
    TITLE "LR_black_phrase_10_0454"
    INDEX 01 10:15:24
  TRACK 455 AUDIO
    TITLE "LR_black_phrase_10_0455"
    INDEX 01 10:17:60
  TRACK 456 AUDIO
    TITLE "LR_black_phrase_10_0456"
    INDEX 01 10:18:62
  TRACK 457 AUDIO
    TITLE "LR_black_phrase_10_0457"
    INDEX 01 10:20:53
  TRACK 458 AUDIO
    TITLE "LR_black_phrase_10_0458"
    INDEX 01 10:21:15
  TRACK 459 AUDIO
    TITLE "LR_black_phrase_10_0459"
    INDEX 01 10:23:41
  TRACK 460 AUDIO
    TITLE "LR_black_phrase_10_0460"
    INDEX 01 10:23:71
  TRACK 461 AUDIO
    TITLE "LR_black_phrase_10_0461"
    INDEX 01 10:26:20
  TRACK 462 AUDIO
    TITLE "LR_black_phrase_10_0462"
    INDEX 01 10:27:25
  TRACK 463 AUDIO
    TITLE "LR_black_phrase_10_0463"
    INDEX 01 10:28:27
  TRACK 464 AUDIO
    TITLE "LR_black_phrase_10_0464"
    INDEX 01 10:28:64
  TRACK 465 AUDIO
    TITLE "LR_black_phrase_10_0465"
    INDEX 01 10:31:25
  TRACK 466 AUDIO
    TITLE "LR_black_phrase_10_0466"
    INDEX 01 10:32:26
  TRACK 467 AUDIO
    TITLE "LR_black_phrase_10_0467"
    INDEX 01 10:33:67
  TRACK 468 AUDIO
    TITLE "LR_black_phrase_10_0468"
    INDEX 01 10:34:33
  TRACK 469 AUDIO
    TITLE "LR_black_phrase_10_0469"
    INDEX 01 10:35:74
  TRACK 470 AUDIO
    TITLE "LR_black_phrase_10_0470"
    INDEX 01 10:36:28
  TRACK 471 AUDIO
    TITLE "LR_black_phrase_10_0471"
    INDEX 01 10:37:69
  TRACK 472 AUDIO
    TITLE "LR_black_phrase_10_0472"
    INDEX 01 10:38:74
  TRACK 473 AUDIO
    TITLE "LR_black_phrase_10_0473"
    INDEX 01 10:40:16
  TRACK 474 AUDIO
    TITLE "LR_black_phrase_10_0474"
    INDEX 01 10:40:57
  TRACK 475 AUDIO
    TITLE "LR_black_phrase_10_0475"
    INDEX 01 10:43:18
  TRACK 476 AUDIO
    TITLE "LR_black_phrase_10_0476"
    INDEX 01 10:44:18
  TRACK 477 AUDIO
    TITLE "LR_black_phrase_10_0477"
    INDEX 01 10:46:36
  TRACK 478 AUDIO
    TITLE "LR_black_phrase_10_0478"
    INDEX 01 10:47:01
  TRACK 479 AUDIO
    TITLE "LR_black_phrase_10_0479"
    INDEX 01 10:49:37
  TRACK 480 AUDIO
    TITLE "LR_black_phrase_10_0480"
    INDEX 01 10:49:66
  TRACK 481 AUDIO
    TITLE "LR_black_phrase_10_0481"
    INDEX 01 10:52:27
  TRACK 482 AUDIO
    TITLE "LR_black_phrase_10_0482"
    INDEX 01 10:53:31
  TRACK 483 AUDIO
    TITLE "LR_black_phrase_10_0483"
    INDEX 01 10:54:57
  TRACK 484 AUDIO
    TITLE "LR_black_phrase_10_0484"
    INDEX 01 10:55:24
  TRACK 485 AUDIO
    TITLE "LR_black_phrase_10_0485"
    INDEX 01 10:56:70
  TRACK 486 AUDIO
    TITLE "LR_black_phrase_10_0486"
    INDEX 01 10:57:66
  TRACK 487 AUDIO
    TITLE "LR_black_phrase_10_0487"
    INDEX 01 11:00:31
  TRACK 488 AUDIO
    TITLE "LR_black_phrase_10_0488"
    INDEX 01 11:00:70
  TRACK 489 AUDIO
    TITLE "LR_black_phrase_10_0489"
    INDEX 01 11:03:43
  TRACK 490 AUDIO
    TITLE "LR_black_phrase_10_0490"
    INDEX 01 11:03:72
  TRACK 491 AUDIO
    TITLE "LR_black_phrase_10_0491"
    INDEX 01 11:06:45
  TRACK 492 AUDIO
    TITLE "LR_black_phrase_10_0492"
    INDEX 01 11:07:50
  TRACK 493 AUDIO
    TITLE "LR_black_phrase_10_0493"
    INDEX 01 11:08:71
  TRACK 494 AUDIO
    TITLE "LR_black_phrase_10_0494"
    INDEX 01 11:09:28
  TRACK 495 AUDIO
    TITLE "LR_black_phrase_10_0495"
    INDEX 01 11:13:72
  TRACK 496 AUDIO
    TITLE "LR_black_phrase_10_0496"
    INDEX 01 11:14:72
  TRACK 497 AUDIO
    TITLE "LR_black_phrase_10_0497"
    INDEX 01 11:17:47
  TRACK 498 AUDIO
    TITLE "LR_black_phrase_10_0498"
    INDEX 01 11:18:11
  TRACK 499 AUDIO
    TITLE "LR_black_phrase_10_0499"
    INDEX 01 11:20:47
  TRACK 500 AUDIO
    TITLE "LR_black_phrase_10_0500"
    INDEX 01 11:21:03
  TRACK 501 AUDIO
    TITLE "LR_black_phrase_10_0501"
    INDEX 01 11:23:39
  TRACK 502 AUDIO
    TITLE "LR_black_phrase_10_0502"
    INDEX 01 11:24:41
  TRACK 503 AUDIO
    TITLE "LR_black_phrase_10_0503"
    INDEX 01 11:25:66
  TRACK 504 AUDIO
    TITLE "LR_black_phrase_10_0504"
    INDEX 01 11:26:28
  TRACK 505 AUDIO
    TITLE "LR_black_phrase_10_0505"
    INDEX 01 11:29:13
  TRACK 506 AUDIO
    TITLE "LR_black_phrase_10_0506"
    INDEX 01 11:30:10
  TRACK 507 AUDIO
    TITLE "LR_black_phrase_10_0507"
    INDEX 01 11:32:03
  TRACK 508 AUDIO
    TITLE "LR_black_phrase_10_0508"
    INDEX 01 11:32:37
  TRACK 509 AUDIO
    TITLE "LR_black_phrase_10_0509"
    INDEX 01 11:34:57
  TRACK 510 AUDIO
    TITLE "LR_black_phrase_10_0510"
    INDEX 01 11:35:02
  TRACK 511 AUDIO
    TITLE "LR_black_phrase_10_0511"
    INDEX 01 11:37:22
  TRACK 512 AUDIO
    TITLE "LR_black_phrase_10_0512"
    INDEX 01 11:38:19
  TRACK 513 AUDIO
    TITLE "LR_black_phrase_10_0513"
    INDEX 01 11:39:29
  TRACK 514 AUDIO
    TITLE "LR_black_phrase_10_0514"
    INDEX 01 11:39:64
  TRACK 515 AUDIO
    TITLE "LR_black_phrase_10_0515"
    INDEX 01 11:41:10
  TRACK 516 AUDIO
    TITLE "LR_black_phrase_10_0516"
    INDEX 01 11:42:07
  TRACK 517 AUDIO
    TITLE "LR_black_phrase_10_0517"
    INDEX 01 11:45:02
  TRACK 518 AUDIO
    TITLE "LR_black_phrase_10_0518"
    INDEX 01 11:45:51
  TRACK 519 AUDIO
    TITLE "LR_black_phrase_10_0519"
    INDEX 01 11:49:00
  TRACK 520 AUDIO
    TITLE "LR_black_phrase_10_0520"
    INDEX 01 11:49:25
  TRACK 521 AUDIO
    TITLE "LR_black_phrase_10_0521"
    INDEX 01 11:52:51
  TRACK 522 AUDIO
    TITLE "LR_black_phrase_10_0522"
    INDEX 01 11:53:56
  TRACK 523 AUDIO
    TITLE "LR_black_phrase_10_0523"
    INDEX 01 11:54:67
  TRACK 524 AUDIO
    TITLE "LR_black_phrase_10_0524"
    INDEX 01 11:55:28
  TRACK 525 AUDIO
    TITLE "LR_black_phrase_10_0525"
    INDEX 01 11:58:40
  TRACK 526 AUDIO
    TITLE "LR_black_phrase_10_0526"
    INDEX 01 11:59:41
  TRACK 527 AUDIO
    TITLE "LR_black_phrase_10_0527"
    INDEX 01 12:02:06
  TRACK 528 AUDIO
    TITLE "LR_black_phrase_10_0528"
    INDEX 01 12:02:42
  TRACK 529 AUDIO
    TITLE "LR_black_phrase_10_0529"
    INDEX 01 12:05:09
  TRACK 530 AUDIO
    TITLE "LR_black_phrase_10_0530"
    INDEX 01 12:05:30
  TRACK 531 AUDIO
    TITLE "LR_black_phrase_10_0531"
    INDEX 01 12:07:74
  TRACK 532 AUDIO
    TITLE "LR_black_phrase_10_0532"
    INDEX 01 12:08:70
  TRACK 533 AUDIO
    TITLE "LR_black_phrase_10_0533"
    INDEX 01 12:10:16
  TRACK 534 AUDIO
    TITLE "LR_black_phrase_10_0534"
    INDEX 01 12:10:51
  TRACK 535 AUDIO
    TITLE "LR_black_phrase_10_0535"
    INDEX 01 12:14:74
  TRACK 536 AUDIO
    TITLE "LR_black_phrase_10_0536"
    INDEX 01 12:16:01
  TRACK 537 AUDIO
    TITLE "LR_black_phrase_10_0537"
    INDEX 01 12:18:46
  TRACK 538 AUDIO
    TITLE "LR_black_phrase_10_0538"
    INDEX 01 12:19:03
  TRACK 539 AUDIO
    TITLE "LR_black_phrase_10_0539"
    INDEX 01 12:21:72
  TRACK 540 AUDIO
    TITLE "LR_black_phrase_10_0540"
    INDEX 01 12:22:15
  TRACK 541 AUDIO
    TITLE "LR_black_phrase_10_0541"
    INDEX 01 12:25:09
  TRACK 542 AUDIO
    TITLE "LR_black_phrase_10_0542"
    INDEX 01 12:26:05
  TRACK 543 AUDIO
    TITLE "LR_black_phrase_10_0543"
    INDEX 01 12:27:14
  TRACK 544 AUDIO
    TITLE "LR_black_phrase_10_0544"
    INDEX 01 12:27:61
  TRACK 545 AUDIO
    TITLE "LR_black_phrase_10_0545"
    INDEX 01 12:30:57
  TRACK 546 AUDIO
    TITLE "LR_black_phrase_10_0546"
    INDEX 01 12:31:57
  TRACK 547 AUDIO
    TITLE "LR_black_phrase_10_0547"
    INDEX 01 12:34:18
  TRACK 548 AUDIO
    TITLE "LR_black_phrase_10_0548"
    INDEX 01 12:34:51
  TRACK 549 AUDIO
    TITLE "LR_black_phrase_10_0549"
    INDEX 01 12:37:16
  TRACK 550 AUDIO
    TITLE "LR_black_phrase_10_0550"
    INDEX 01 12:37:38
  TRACK 551 AUDIO
    TITLE "LR_black_phrase_10_0551"
    INDEX 01 12:40:05
  TRACK 552 AUDIO
    TITLE "LR_black_phrase_10_0552"
    INDEX 01 12:41:00
  TRACK 553 AUDIO
    TITLE "LR_black_phrase_10_0553"
    INDEX 01 12:42:21
  TRACK 554 AUDIO
    TITLE "LR_black_phrase_10_0554"
    INDEX 01 12:42:57
  TRACK 555 AUDIO
    TITLE "LR_black_phrase_10_0555"
    INDEX 01 12:45:16
  TRACK 556 AUDIO
    TITLE "LR_black_phrase_10_0556"
    INDEX 01 12:46:13
  TRACK 557 AUDIO
    TITLE "LR_black_phrase_10_0557"
    INDEX 01 12:48:26
  TRACK 558 AUDIO
    TITLE "LR_black_phrase_10_0558"
    INDEX 01 12:48:61
  TRACK 559 AUDIO
    TITLE "LR_black_phrase_10_0559"
    INDEX 01 12:51:18
  TRACK 560 AUDIO
    TITLE "LR_black_phrase_10_0560"
    INDEX 01 12:51:38
  TRACK 561 AUDIO
    TITLE "LR_black_phrase_10_0561"
    INDEX 01 12:53:70
  TRACK 562 AUDIO
    TITLE "LR_black_phrase_10_0562"
    INDEX 01 12:54:66
  TRACK 563 AUDIO
    TITLE "LR_black_phrase_10_0563"
    INDEX 01 12:56:04
  TRACK 564 AUDIO
    TITLE "LR_black_phrase_10_0564"
    INDEX 01 12:56:43
  TRACK 565 AUDIO
    TITLE "LR_black_phrase_10_0565"
    INDEX 01 12:59:12
  TRACK 566 AUDIO
    TITLE "LR_black_phrase_10_0566"
    INDEX 01 13:00:13
  TRACK 567 AUDIO
    TITLE "LR_black_phrase_10_0567"
    INDEX 01 13:02:30
  TRACK 568 AUDIO
    TITLE "LR_black_phrase_10_0568"
    INDEX 01 13:02:67
  TRACK 569 AUDIO
    TITLE "LR_black_phrase_10_0569"
    INDEX 01 13:05:42
  TRACK 570 AUDIO
    TITLE "LR_black_phrase_10_0570"
    INDEX 01 13:05:73
  TRACK 571 AUDIO
    TITLE "LR_black_phrase_10_0571"
    INDEX 01 13:08:48
  TRACK 572 AUDIO
    TITLE "LR_black_phrase_10_0572"
    INDEX 01 13:09:57
  TRACK 573 AUDIO
    TITLE "LR_black_phrase_10_0573"
    INDEX 01 13:10:69
  TRACK 574 AUDIO
    TITLE "LR_black_phrase_10_0574"
    INDEX 01 13:11:29
  TRACK 575 AUDIO
    TITLE "LR_black_phrase_10_0575"
    INDEX 01 13:12:46
  TRACK 576 AUDIO
    TITLE "LR_black_phrase_10_0576"
    INDEX 01 13:13:46
  TRACK 577 AUDIO
    TITLE "LR_black_phrase_10_0577"
    INDEX 01 13:16:03
  TRACK 578 AUDIO
    TITLE "LR_black_phrase_10_0578"
    INDEX 01 13:16:38
  TRACK 579 AUDIO
    TITLE "LR_black_phrase_10_0579"
    INDEX 01 13:18:56
  TRACK 580 AUDIO
    TITLE "LR_black_phrase_10_0580"
    INDEX 01 13:19:17
  TRACK 581 AUDIO
    TITLE "LR_black_phrase_10_0581"
    INDEX 01 13:21:41
  TRACK 582 AUDIO
    TITLE "LR_black_phrase_10_0582"
    INDEX 01 13:22:46
  TRACK 583 AUDIO
    TITLE "LR_black_phrase_10_0583"
    INDEX 01 13:23:71
  TRACK 584 AUDIO
    TITLE "LR_black_phrase_10_0584"
    INDEX 01 13:24:32
  TRACK 585 AUDIO
    TITLE "LR_black_phrase_10_0585"
    INDEX 01 13:27:10
  TRACK 586 AUDIO
    TITLE "LR_black_phrase_10_0586"
    INDEX 01 13:28:10
  TRACK 587 AUDIO
    TITLE "LR_black_phrase_10_0587"
    INDEX 01 13:30:38
  TRACK 588 AUDIO
    TITLE "LR_black_phrase_10_0588"
    INDEX 01 13:30:73
  TRACK 589 AUDIO
    TITLE "LR_black_phrase_10_0589"
    INDEX 01 13:33:36
  TRACK 590 AUDIO
    TITLE "LR_black_phrase_10_0590"
    INDEX 01 13:33:58
  TRACK 591 AUDIO
    TITLE "LR_black_phrase_10_0591"
    INDEX 01 13:36:23
  TRACK 592 AUDIO
    TITLE "LR_black_phrase_10_0592"
    INDEX 01 13:37:19
  TRACK 593 AUDIO
    TITLE "LR_black_phrase_10_0593"
    INDEX 01 13:38:34
  TRACK 594 AUDIO
    TITLE "LR_black_phrase_10_0594"
    INDEX 01 13:38:67
  TRACK 595 AUDIO
    TITLE "LR_black_phrase_10_0595"
    INDEX 01 13:41:28
  TRACK 596 AUDIO
    TITLE "LR_black_phrase_10_0596"
    INDEX 01 13:42:28
  TRACK 597 AUDIO
    TITLE "LR_black_phrase_10_0597"
    INDEX 01 13:44:26
  TRACK 598 AUDIO
    TITLE "LR_black_phrase_10_0598"
    INDEX 01 13:44:60
  TRACK 599 AUDIO
    TITLE "LR_black_phrase_10_0599"
    INDEX 01 13:46:57
  TRACK 600 AUDIO
    TITLE "LR_black_phrase_10_0600"
    INDEX 01 13:47:09
  TRACK 601 AUDIO
    TITLE "LR_black_phrase_10_0601"
    INDEX 01 13:49:02
  TRACK 602 AUDIO
    TITLE "LR_black_phrase_10_0602"
    INDEX 01 13:50:06
  TRACK 603 AUDIO
    TITLE "LR_black_phrase_10_0603"
    INDEX 01 13:51:40
  TRACK 604 AUDIO
    TITLE "LR_black_phrase_10_0604"
    INDEX 01 13:52:06
  TRACK 605 AUDIO
    TITLE "LR_black_phrase_10_0605"
    INDEX 01 13:56:00
  TRACK 606 AUDIO
    TITLE "LR_black_phrase_10_0606"
    INDEX 01 13:56:73
  TRACK 607 AUDIO
    TITLE "LR_black_phrase_10_0607"
    INDEX 01 13:59:71
  TRACK 608 AUDIO
    TITLE "LR_black_phrase_10_0608"
    INDEX 01 14:00:27
  TRACK 609 AUDIO
    TITLE "LR_black_phrase_10_0609"
    INDEX 01 14:03:14
  TRACK 610 AUDIO
    TITLE "LR_black_phrase_10_0610"
    INDEX 01 14:03:36
  TRACK 611 AUDIO
    TITLE "LR_black_phrase_10_0611"
    INDEX 01 14:06:20
  TRACK 612 AUDIO
    TITLE "LR_black_phrase_10_0612"
    INDEX 01 14:07:26
  TRACK 613 AUDIO
    TITLE "LR_black_phrase_10_0613"
    INDEX 01 14:08:35
  TRACK 614 AUDIO
    TITLE "LR_black_phrase_10_0614"
    INDEX 01 14:09:01
  TRACK 615 AUDIO
    TITLE "LR_black_phrase_10_0615"
    INDEX 01 14:11:27
  TRACK 616 AUDIO
    TITLE "LR_black_phrase_10_0616"
    INDEX 01 14:12:25
  TRACK 617 AUDIO
    TITLE "LR_black_phrase_10_0617"
    INDEX 01 14:14:59
  TRACK 618 AUDIO
    TITLE "LR_black_phrase_10_0618"
    INDEX 01 14:15:23
  TRACK 619 AUDIO
    TITLE "LR_black_phrase_10_0619"
    INDEX 01 14:17:38
  TRACK 620 AUDIO
    TITLE "LR_black_phrase_10_0620"
    INDEX 01 14:17:69
  TRACK 621 AUDIO
    TITLE "LR_black_phrase_10_0621"
    INDEX 01 14:20:07
  TRACK 622 AUDIO
    TITLE "LR_black_phrase_10_0622"
    INDEX 01 14:21:14
  TRACK 623 AUDIO
    TITLE "LR_black_phrase_10_0623"
    INDEX 01 14:22:15
  TRACK 624 AUDIO
    TITLE "LR_black_phrase_10_0624"
    INDEX 01 14:22:51
  TRACK 625 AUDIO
    TITLE "LR_black_phrase_10_0625"
    INDEX 01 14:24:06
  TRACK 626 AUDIO
    TITLE "LR_black_phrase_10_0626"
    INDEX 01 14:25:06
  TRACK 627 AUDIO
    TITLE "LR_black_phrase_10_0627"
    INDEX 01 14:27:09
  TRACK 628 AUDIO
    TITLE "LR_black_phrase_10_0628"
    INDEX 01 14:27:48
  TRACK 629 AUDIO
    TITLE "LR_black_phrase_10_0629"
    INDEX 01 14:29:37
  TRACK 630 AUDIO
    TITLE "LR_black_phrase_10_0630"
    INDEX 01 14:29:66
  TRACK 631 AUDIO
    TITLE "LR_black_phrase_10_0631"
    INDEX 01 14:31:55
  TRACK 632 AUDIO
    TITLE "LR_black_phrase_10_0632"
    INDEX 01 14:32:59
  TRACK 633 AUDIO
    TITLE "LR_black_phrase_10_0633"
    INDEX 01 14:33:72
  TRACK 634 AUDIO
    TITLE "LR_black_phrase_10_0634"
    INDEX 01 14:34:38
  TRACK 635 AUDIO
    TITLE "LR_black_phrase_10_0635"
    INDEX 01 14:36:49
  TRACK 636 AUDIO
    TITLE "LR_black_phrase_10_0636"
    INDEX 01 14:37:46
  TRACK 637 AUDIO
    TITLE "LR_black_phrase_10_0637"
    INDEX 01 14:39:12
  TRACK 638 AUDIO
    TITLE "LR_black_phrase_10_0638"
    INDEX 01 14:39:51
  TRACK 639 AUDIO
    TITLE "LR_black_phrase_10_0639"
    INDEX 01 14:41:54
  TRACK 640 AUDIO
    TITLE "LR_black_phrase_10_0640"
    INDEX 01 14:42:08
  TRACK 641 AUDIO
    TITLE "LR_black_phrase_10_0641"
    INDEX 01 14:44:11
  TRACK 642 AUDIO
    TITLE "LR_black_phrase_10_0642"
    INDEX 01 14:45:16
  TRACK 643 AUDIO
    TITLE "LR_black_phrase_10_0643"
    INDEX 01 14:46:39
  TRACK 644 AUDIO
    TITLE "LR_black_phrase_10_0644"
    INDEX 01 14:47:05
  TRACK 645 AUDIO
    TITLE "LR_black_phrase_10_0645"
    INDEX 01 14:48:19
  TRACK 646 AUDIO
    TITLE "LR_black_phrase_10_0646"
    INDEX 01 14:49:18
  TRACK 647 AUDIO
    TITLE "LR_black_phrase_10_0647"
    INDEX 01 14:51:66
  TRACK 648 AUDIO
    TITLE "LR_black_phrase_10_0648"
    INDEX 01 14:52:30
  TRACK 649 AUDIO
    TITLE "LR_black_phrase_10_0649"
    INDEX 01 14:55:03
  TRACK 650 AUDIO
    TITLE "LR_black_phrase_10_0650"
    INDEX 01 14:55:32
  TRACK 651 AUDIO
    TITLE "LR_black_phrase_10_0651"
    INDEX 01 14:58:05
  TRACK 652 AUDIO
    TITLE "LR_black_phrase_10_0652"
    INDEX 01 14:59:11
  TRACK 653 AUDIO
    TITLE "LR_black_phrase_10_0653"
    INDEX 01 15:00:30
  TRACK 654 AUDIO
    TITLE "LR_black_phrase_10_0654"
    INDEX 01 15:00:71
  TRACK 655 AUDIO
    TITLE "LR_black_phrase_10_0655"
    INDEX 01 15:03:36
  TRACK 656 AUDIO
    TITLE "LR_black_phrase_10_0656"
    INDEX 01 15:04:35
  TRACK 657 AUDIO
    TITLE "LR_black_phrase_10_0657"
    INDEX 01 15:06:30
  TRACK 658 AUDIO
    TITLE "LR_black_phrase_10_0658"
    INDEX 01 15:06:71
  TRACK 659 AUDIO
    TITLE "LR_black_phrase_10_0659"
    INDEX 01 15:09:03
  TRACK 660 AUDIO
    TITLE "LR_black_phrase_10_0660"
    INDEX 01 15:09:31
  TRACK 661 AUDIO
    TITLE "LR_black_phrase_10_0661"
    INDEX 01 15:11:37
  TRACK 662 AUDIO
    TITLE "LR_black_phrase_10_0662"
    INDEX 01 15:12:41
  TRACK 663 AUDIO
    TITLE "LR_black_phrase_10_0663"
    INDEX 01 15:13:68
  TRACK 664 AUDIO
    TITLE "LR_black_phrase_10_0664"
    INDEX 01 15:14:32
  TRACK 665 AUDIO
    TITLE "LR_black_phrase_10_0665"
    INDEX 01 15:16:72
  TRACK 666 AUDIO
    TITLE "LR_black_phrase_10_0666"
    INDEX 01 15:18:00
  TRACK 667 AUDIO
    TITLE "LR_black_phrase_10_0667"
    INDEX 01 15:20:05
  TRACK 668 AUDIO
    TITLE "LR_black_phrase_10_0668"
    INDEX 01 15:20:42
  TRACK 669 AUDIO
    TITLE "LR_black_phrase_10_0669"
    INDEX 01 15:22:35
  TRACK 670 AUDIO
    TITLE "LR_black_phrase_10_0670"
    INDEX 01 15:22:63
  TRACK 671 AUDIO
    TITLE "LR_black_phrase_10_0671"
    INDEX 01 15:24:56
  TRACK 672 AUDIO
    TITLE "LR_black_phrase_10_0672"
    INDEX 01 15:25:57
  TRACK 673 AUDIO
    TITLE "LR_black_phrase_10_0673"
    INDEX 01 15:26:64
  TRACK 674 AUDIO
    TITLE "LR_black_phrase_10_0674"
    INDEX 01 15:27:30
  TRACK 675 AUDIO
    TITLE "LR_black_phrase_10_0675"
    INDEX 01 15:28:46
  TRACK 676 AUDIO
    TITLE "LR_black_phrase_10_0676"
    INDEX 01 15:29:43
  TRACK 677 AUDIO
    TITLE "LR_black_phrase_10_0677"
    INDEX 01 15:31:44
  TRACK 678 AUDIO
    TITLE "LR_black_phrase_10_0678"
    INDEX 01 15:32:06
  TRACK 679 AUDIO
    TITLE "LR_black_phrase_10_0679"
    INDEX 01 15:35:04
  TRACK 680 AUDIO
    TITLE "LR_black_phrase_10_0680"
    INDEX 01 15:35:34
  TRACK 681 AUDIO
    TITLE "LR_black_phrase_10_0681"
    INDEX 01 15:38:32
  TRACK 682 AUDIO
    TITLE "LR_black_phrase_10_0682"
    INDEX 01 15:39:36
  TRACK 683 AUDIO
    TITLE "LR_black_phrase_10_0683"
    INDEX 01 15:40:57
  TRACK 684 AUDIO
    TITLE "LR_black_phrase_10_0684"
    INDEX 01 15:41:21
  TRACK 685 AUDIO
    TITLE "LR_black_phrase_10_0685"
    INDEX 01 15:42:48
  TRACK 686 AUDIO
    TITLE "LR_black_phrase_10_0686"
    INDEX 01 15:43:47
  TRACK 687 AUDIO
    TITLE "LR_black_phrase_10_0687"
    INDEX 01 15:45:26
  TRACK 688 AUDIO
    TITLE "LR_black_phrase_10_0688"
    INDEX 01 15:45:66
  TRACK 689 AUDIO
    TITLE "LR_black_phrase_10_0689"
    INDEX 01 15:48:03
  TRACK 690 AUDIO
    TITLE "LR_black_phrase_10_0690"
    INDEX 01 15:48:37
  TRACK 691 AUDIO
    TITLE "LR_black_phrase_10_0691"
    INDEX 01 15:50:53
  TRACK 692 AUDIO
    TITLE "LR_black_phrase_10_0692"
    INDEX 01 15:51:58
  TRACK 693 AUDIO
    TITLE "LR_black_phrase_10_0693"
    INDEX 01 15:53:06
  TRACK 694 AUDIO
    TITLE "LR_black_phrase_10_0694"
    INDEX 01 15:53:47
  TRACK 695 AUDIO
    TITLE "LR_black_phrase_10_0695"
    INDEX 01 15:57:41
  TRACK 696 AUDIO
    TITLE "LR_black_phrase_10_0696"
    INDEX 01 15:58:41
  TRACK 697 AUDIO
    TITLE "LR_black_phrase_10_0697"
    INDEX 01 16:01:08
  TRACK 698 AUDIO
    TITLE "LR_black_phrase_10_0698"
    INDEX 01 16:01:47
  TRACK 699 AUDIO
    TITLE "LR_black_phrase_10_0699"
    INDEX 01 16:04:24
  TRACK 700 AUDIO
    TITLE "LR_black_phrase_10_0700"
    INDEX 01 16:04:53
  TRACK 701 AUDIO
    TITLE "LR_black_phrase_10_0701"
    INDEX 01 16:07:28
  TRACK 702 AUDIO
    TITLE "LR_black_phrase_10_0702"
    INDEX 01 16:08:27
  TRACK 703 AUDIO
    TITLE "LR_black_phrase_10_0703"
    INDEX 01 16:09:60
  TRACK 704 AUDIO
    TITLE "LR_black_phrase_10_0704"
    INDEX 01 16:10:20
  TRACK 705 AUDIO
    TITLE "LR_black_phrase_10_0705"
    INDEX 01 16:12:49
  TRACK 706 AUDIO
    TITLE "LR_black_phrase_10_0706"
    INDEX 01 16:13:48
  TRACK 707 AUDIO
    TITLE "LR_black_phrase_10_0707"
    INDEX 01 16:14:69
  TRACK 708 AUDIO
    TITLE "LR_black_phrase_10_0708"
    INDEX 01 16:15:31
  TRACK 709 AUDIO
    TITLE "LR_black_phrase_10_0709"
    INDEX 01 16:17:17
  TRACK 710 AUDIO
    TITLE "LR_black_phrase_10_0710"
    INDEX 01 16:17:38
  TRACK 711 AUDIO
    TITLE "LR_black_phrase_10_0711"
    INDEX 01 16:19:23
  TRACK 712 AUDIO
    TITLE "LR_black_phrase_10_0712"
    INDEX 01 16:20:19
  TRACK 713 AUDIO
    TITLE "LR_black_phrase_10_0713"
    INDEX 01 16:21:38
  TRACK 714 AUDIO
    TITLE "LR_black_phrase_10_0714"
    INDEX 01 16:21:73
  TRACK 715 AUDIO
    TITLE "LR_black_phrase_10_0715"
    INDEX 01 16:24:07
  TRACK 716 AUDIO
    TITLE "LR_black_phrase_10_0716"
    INDEX 01 16:25:06
  TRACK 717 AUDIO
    TITLE "LR_black_phrase_10_0717"
    INDEX 01 16:26:45
  TRACK 718 AUDIO
    TITLE "LR_black_phrase_10_0718"
    INDEX 01 16:27:03
  TRACK 719 AUDIO
    TITLE "LR_black_phrase_10_0719"
    INDEX 01 16:29:26
  TRACK 720 AUDIO
    TITLE "LR_black_phrase_10_0720"
    INDEX 01 16:29:49
  TRACK 721 AUDIO
    TITLE "LR_black_phrase_10_0721"
    INDEX 01 16:31:72
  TRACK 722 AUDIO
    TITLE "LR_black_phrase_10_0722"
    INDEX 01 16:32:67
  TRACK 723 AUDIO
    TITLE "LR_black_phrase_10_0723"
    INDEX 01 16:34:09
  TRACK 724 AUDIO
    TITLE "LR_black_phrase_10_0724"
    INDEX 01 16:34:48
  TRACK 725 AUDIO
    TITLE "LR_black_phrase_10_0725"
    INDEX 01 16:37:04
  TRACK 726 AUDIO
    TITLE "LR_black_phrase_10_0726"
    INDEX 01 16:38:03
  TRACK 727 AUDIO
    TITLE "LR_black_phrase_10_0727"
    INDEX 01 16:40:43
  TRACK 728 AUDIO
    TITLE "LR_black_phrase_10_0728"
    INDEX 01 16:41:03
  TRACK 729 AUDIO
    TITLE "LR_black_phrase_10_0729"
    INDEX 01 16:43:61
  TRACK 730 AUDIO
    TITLE "LR_black_phrase_10_0730"
    INDEX 01 16:44:06
  TRACK 731 AUDIO
    TITLE "LR_black_phrase_10_0731"
    INDEX 01 16:46:63
  TRACK 732 AUDIO
    TITLE "LR_black_phrase_10_0732"
    INDEX 01 16:47:59
  TRACK 733 AUDIO
    TITLE "LR_black_phrase_10_0733"
    INDEX 01 16:49:07
  TRACK 734 AUDIO
    TITLE "LR_black_phrase_10_0734"
    INDEX 01 16:49:48
  TRACK 735 AUDIO
    TITLE "LR_black_phrase_10_0735"
    INDEX 01 16:51:45
  TRACK 736 AUDIO
    TITLE "LR_black_phrase_10_0736"
    INDEX 01 16:52:42
  TRACK 737 AUDIO
    TITLE "LR_black_phrase_10_0737"
    INDEX 01 16:54:41
  TRACK 738 AUDIO
    TITLE "LR_black_phrase_10_0738"
    INDEX 01 16:55:02
  TRACK 739 AUDIO
    TITLE "LR_black_phrase_10_0739"
    INDEX 01 16:57:71
  TRACK 740 AUDIO
    TITLE "LR_black_phrase_10_0740"
    INDEX 01 16:58:16
  TRACK 741 AUDIO
    TITLE "LR_black_phrase_10_0741"
    INDEX 01 17:01:10
  TRACK 742 AUDIO
    TITLE "LR_black_phrase_10_0742"
    INDEX 01 17:02:06
  TRACK 743 AUDIO
    TITLE "LR_black_phrase_10_0743"
    INDEX 01 17:03:09
  TRACK 744 AUDIO
    TITLE "LR_black_phrase_10_0744"
    INDEX 01 17:03:44
  TRACK 745 AUDIO
    TITLE "LR_black_phrase_10_0745"
    INDEX 01 17:04:57
  TRACK 746 AUDIO
    TITLE "LR_black_phrase_10_0746"
    INDEX 01 17:05:59
  TRACK 747 AUDIO
    TITLE "LR_black_phrase_10_0747"
    INDEX 01 17:07:44
  TRACK 748 AUDIO
    TITLE "LR_black_phrase_10_0748"
    INDEX 01 17:08:04
  TRACK 749 AUDIO
    TITLE "LR_black_phrase_10_0749"
    INDEX 01 17:09:57
  TRACK 750 AUDIO
    TITLE "LR_black_phrase_10_0750"
    INDEX 01 17:10:01
  TRACK 751 AUDIO
    TITLE "LR_black_phrase_10_0751"
    INDEX 01 17:11:53
  TRACK 752 AUDIO
    TITLE "LR_black_phrase_10_0752"
    INDEX 01 17:12:49
  TRACK 753 AUDIO
    TITLE "LR_black_phrase_10_0753"
    INDEX 01 17:13:62
  TRACK 754 AUDIO
    TITLE "LR_black_phrase_10_0754"
    INDEX 01 17:14:20
  TRACK 755 AUDIO
    TITLE "LR_black_phrase_10_0755"
    INDEX 01 17:16:60
  TRACK 756 AUDIO
    TITLE "LR_black_phrase_10_0756"
    INDEX 01 17:17:58
  TRACK 757 AUDIO
    TITLE "LR_black_phrase_10_0757"
    INDEX 01 17:19:73
  TRACK 758 AUDIO
    TITLE "LR_black_phrase_10_0758"
    INDEX 01 17:20:33
  TRACK 759 AUDIO
    TITLE "LR_black_phrase_10_0759"
    INDEX 01 17:22:40
  TRACK 760 AUDIO
    TITLE "LR_black_phrase_10_0760"
    INDEX 01 17:22:61
  TRACK 761 AUDIO
    TITLE "LR_black_phrase_10_0761"
    INDEX 01 17:24:66
  TRACK 762 AUDIO
    TITLE "LR_black_phrase_10_0762"
    INDEX 01 17:25:63
  TRACK 763 AUDIO
    TITLE "LR_black_phrase_10_0763"
    INDEX 01 17:27:09
  TRACK 764 AUDIO
    TITLE "LR_black_phrase_10_0764"
    INDEX 01 17:27:45
  TRACK 765 AUDIO
    TITLE "LR_black_phrase_10_0765"
    INDEX 01 17:30:67
  TRACK 766 AUDIO
    TITLE "LR_black_phrase_10_0766"
    INDEX 01 17:31:66
  TRACK 767 AUDIO
    TITLE "LR_black_phrase_10_0767"
    INDEX 01 17:33:51
  TRACK 768 AUDIO
    TITLE "LR_black_phrase_10_0768"
    INDEX 01 17:34:11
  TRACK 769 AUDIO
    TITLE "LR_black_phrase_10_0769"
    INDEX 01 17:36:28
  TRACK 770 AUDIO
    TITLE "LR_black_phrase_10_0770"
    INDEX 01 17:36:51
  TRACK 771 AUDIO
    TITLE "LR_black_phrase_10_0771"
    INDEX 01 17:38:68
  TRACK 772 AUDIO
    TITLE "LR_black_phrase_10_0772"
    INDEX 01 17:39:65
  TRACK 773 AUDIO
    TITLE "LR_black_phrase_10_0773"
    INDEX 01 17:40:73
  TRACK 774 AUDIO
    TITLE "LR_black_phrase_10_0774"
    INDEX 01 17:41:31
  TRACK 775 AUDIO
    TITLE "LR_black_phrase_10_0775"
    INDEX 01 17:44:71
  TRACK 776 AUDIO
    TITLE "LR_black_phrase_10_0776"
    INDEX 01 17:45:70
  TRACK 777 AUDIO
    TITLE "LR_black_phrase_10_0777"
    INDEX 01 17:47:67
  TRACK 778 AUDIO
    TITLE "LR_black_phrase_10_0778"
    INDEX 01 17:48:25
  TRACK 779 AUDIO
    TITLE "LR_black_phrase_10_0779"
    INDEX 01 17:50:34
  TRACK 780 AUDIO
    TITLE "LR_black_phrase_10_0780"
    INDEX 01 17:50:57
  TRACK 781 AUDIO
    TITLE "LR_black_phrase_10_0781"
    INDEX 01 17:52:66
  TRACK 782 AUDIO
    TITLE "LR_black_phrase_10_0782"
    INDEX 01 17:53:66
  TRACK 783 AUDIO
    TITLE "LR_black_phrase_10_0783"
    INDEX 01 17:55:02
  TRACK 784 AUDIO
    TITLE "LR_black_phrase_10_0784"
    INDEX 01 17:55:37
  TRACK 785 AUDIO
    TITLE "LR_black_phrase_10_0785"
    INDEX 01 17:59:23
  TRACK 786 AUDIO
    TITLE "LR_black_phrase_10_0786"
    INDEX 01 18:00:23
  TRACK 787 AUDIO
    TITLE "LR_black_phrase_10_0787"
    INDEX 01 18:02:49
  TRACK 788 AUDIO
    TITLE "LR_black_phrase_10_0788"
    INDEX 01 18:03:05
  TRACK 789 AUDIO
    TITLE "LR_black_phrase_10_0789"
    INDEX 01 18:04:71
  TRACK 790 AUDIO
    TITLE "LR_black_phrase_10_0790"
    INDEX 01 18:05:16
  TRACK 791 AUDIO
    TITLE "LR_black_phrase_10_0791"
    INDEX 01 18:07:07
  TRACK 792 AUDIO
    TITLE "LR_black_phrase_10_0792"
    INDEX 01 18:08:01
  TRACK 793 AUDIO
    TITLE "LR_black_phrase_10_0793"
    INDEX 01 18:09:18
  TRACK 794 AUDIO
    TITLE "LR_black_phrase_10_0794"
    INDEX 01 18:09:53
  TRACK 795 AUDIO
    TITLE "LR_black_phrase_10_0795"
    INDEX 01 18:12:28
  TRACK 796 AUDIO
    TITLE "LR_black_phrase_10_0796"
    INDEX 01 18:13:25
  TRACK 797 AUDIO
    TITLE "LR_black_phrase_10_0797"
    INDEX 01 18:14:68
  TRACK 798 AUDIO
    TITLE "LR_black_phrase_10_0798"
    INDEX 01 18:15:28
  TRACK 799 AUDIO
    TITLE "LR_black_phrase_10_0799"
    INDEX 01 18:17:07
  TRACK 800 AUDIO
    TITLE "LR_black_phrase_10_0800"
    INDEX 01 18:17:31
  TRACK 801 AUDIO
    TITLE "LR_black_phrase_10_0801"
    INDEX 01 18:19:10
  TRACK 802 AUDIO
    TITLE "LR_black_phrase_10_0802"
    INDEX 01 18:20:13
  TRACK 803 AUDIO
    TITLE "LR_black_phrase_10_0803"
    INDEX 01 18:21:27
  TRACK 804 AUDIO
    TITLE "LR_black_phrase_10_0804"
    INDEX 01 18:21:66
  TRACK 805 AUDIO
    TITLE "LR_black_phrase_10_0805"
    INDEX 01 18:23:04
  TRACK 806 AUDIO
    TITLE "LR_black_phrase_10_0806"
    INDEX 01 18:23:69
  TRACK 807 AUDIO
    TITLE "LR_black_phrase_10_0807"
    INDEX 01 18:26:14
  TRACK 808 AUDIO
    TITLE "LR_black_phrase_10_0808"
    INDEX 01 18:26:51
  TRACK 809 AUDIO
    TITLE "LR_black_phrase_10_0809"
    INDEX 01 18:28:58
  TRACK 810 AUDIO
    TITLE "LR_black_phrase_10_0810"
    INDEX 01 18:29:12
  TRACK 811 AUDIO
    TITLE "LR_black_phrase_10_0811"
    INDEX 01 18:31:21
  TRACK 812 AUDIO
    TITLE "LR_black_phrase_10_0812"
    INDEX 01 18:32:26
  TRACK 813 AUDIO
    TITLE "LR_black_phrase_10_0813"
    INDEX 01 18:33:30
  TRACK 814 AUDIO
    TITLE "LR_black_phrase_10_0814"
    INDEX 01 18:33:71
  TRACK 815 AUDIO
    TITLE "LR_black_phrase_10_0815"
    INDEX 01 18:36:16
  TRACK 816 AUDIO
    TITLE "LR_black_phrase_10_0816"
    INDEX 01 18:37:22
  TRACK 817 AUDIO
    TITLE "LR_black_phrase_10_0817"
    INDEX 01 18:39:23
  TRACK 818 AUDIO
    TITLE "LR_black_phrase_10_0818"
    INDEX 01 18:39:60
  TRACK 819 AUDIO
    TITLE "LR_black_phrase_10_0819"
    INDEX 01 18:41:53
  TRACK 820 AUDIO
    TITLE "LR_black_phrase_10_0820"
    INDEX 01 18:42:09
  TRACK 821 AUDIO
    TITLE "LR_black_phrase_10_0821"
    INDEX 01 18:44:00
  TRACK 822 AUDIO
    TITLE "LR_black_phrase_10_0822"
    INDEX 01 18:45:06
  TRACK 823 AUDIO
    TITLE "LR_black_phrase_10_0823"
    INDEX 01 18:46:44
  TRACK 824 AUDIO
    TITLE "LR_black_phrase_10_0824"
    INDEX 01 18:47:08
  TRACK 825 AUDIO
    TITLE "LR_black_phrase_10_0825"
    INDEX 01 18:48:43
  TRACK 826 AUDIO
    TITLE "LR_black_phrase_10_0826"
    INDEX 01 18:49:41
  TRACK 827 AUDIO
    TITLE "LR_black_phrase_10_0827"
    INDEX 01 18:52:02
  TRACK 828 AUDIO
    TITLE "LR_black_phrase_10_0828"
    INDEX 01 18:52:41
  TRACK 829 AUDIO
    TITLE "LR_black_phrase_10_0829"
    INDEX 01 18:55:18
  TRACK 830 AUDIO
    TITLE "LR_black_phrase_10_0830"
    INDEX 01 18:55:49
  TRACK 831 AUDIO
    TITLE "LR_black_phrase_10_0831"
    INDEX 01 18:58:26
  TRACK 832 AUDIO
    TITLE "LR_black_phrase_10_0832"
    INDEX 01 18:59:31
  TRACK 833 AUDIO
    TITLE "LR_black_phrase_10_0833"
    INDEX 01 19:01:18
  TRACK 834 AUDIO
    TITLE "LR_black_phrase_10_0834"
    INDEX 01 19:01:57
  TRACK 835 AUDIO
    TITLE "LR_black_phrase_10_0835"
    INDEX 01 19:03:47
  TRACK 836 AUDIO
    TITLE "LR_black_phrase_10_0836"
    INDEX 01 19:04:46
  TRACK 837 AUDIO
    TITLE "LR_black_phrase_10_0837"
    INDEX 01 19:06:23
  TRACK 838 AUDIO
    TITLE "LR_black_phrase_10_0838"
    INDEX 01 19:06:63
  TRACK 839 AUDIO
    TITLE "LR_black_phrase_10_0839"
    INDEX 01 19:09:22
  TRACK 840 AUDIO
    TITLE "LR_black_phrase_10_0840"
    INDEX 01 19:09:51
  TRACK 841 AUDIO
    TITLE "LR_black_phrase_10_0841"
    INDEX 01 19:12:10
  TRACK 842 AUDIO
    TITLE "LR_black_phrase_10_0842"
    INDEX 01 19:13:14
  TRACK 843 AUDIO
    TITLE "LR_black_phrase_10_0843"
    INDEX 01 19:14:23
  TRACK 844 AUDIO
    TITLE "LR_black_phrase_10_0844"
    INDEX 01 19:14:62
  TRACK 845 AUDIO
    TITLE "LR_black_phrase_10_0845"
    INDEX 01 19:16:69
  TRACK 846 AUDIO
    TITLE "LR_black_phrase_10_0846"
    INDEX 01 19:17:68
  TRACK 847 AUDIO
    TITLE "LR_black_phrase_10_0847"
    INDEX 01 19:20:35
  TRACK 848 AUDIO
    TITLE "LR_black_phrase_10_0848"
    INDEX 01 19:20:73
  TRACK 849 AUDIO
    TITLE "LR_black_phrase_10_0849"
    INDEX 01 19:23:41
  TRACK 850 AUDIO
    TITLE "LR_black_phrase_10_0850"
    INDEX 01 19:23:71
  TRACK 851 AUDIO
    TITLE "LR_black_phrase_10_0851"
    INDEX 01 19:26:40
  TRACK 852 AUDIO
    TITLE "LR_black_phrase_10_0852"
    INDEX 01 19:27:37
  TRACK 853 AUDIO
    TITLE "LR_black_phrase_10_0853"
    INDEX 01 19:28:50
  TRACK 854 AUDIO
    TITLE "LR_black_phrase_10_0854"
    INDEX 01 19:29:17
  TRACK 855 AUDIO
    TITLE "LR_black_phrase_10_0855"
    INDEX 01 19:31:57
  TRACK 856 AUDIO
    TITLE "LR_black_phrase_10_0856"
    INDEX 01 19:32:56
  TRACK 857 AUDIO
    TITLE "LR_black_phrase_10_0857"
    INDEX 01 19:34:51
  TRACK 858 AUDIO
    TITLE "LR_black_phrase_10_0858"
    INDEX 01 19:35:17
  TRACK 859 AUDIO
    TITLE "LR_black_phrase_10_0859"
    INDEX 01 19:37:34
  TRACK 860 AUDIO
    TITLE "LR_black_phrase_10_0860"
    INDEX 01 19:37:63
  TRACK 861 AUDIO
    TITLE "LR_black_phrase_10_0861"
    INDEX 01 19:40:05
  TRACK 862 AUDIO
    TITLE "LR_black_phrase_10_0862"
    INDEX 01 19:41:10
  TRACK 863 AUDIO
    TITLE "LR_black_phrase_10_0863"
    INDEX 01 19:42:31
  TRACK 864 AUDIO
    TITLE "LR_black_phrase_10_0864"
    INDEX 01 19:42:68
  TRACK 865 AUDIO
    TITLE "LR_black_phrase_10_0865"
    INDEX 01 19:44:04
  TRACK 866 AUDIO
    TITLE "LR_black_phrase_10_0866"
    INDEX 01 19:45:04
  TRACK 867 AUDIO
    TITLE "LR_black_phrase_10_0867"
    INDEX 01 19:46:68
  TRACK 868 AUDIO
    TITLE "LR_black_phrase_10_0868"
    INDEX 01 19:47:34
  TRACK 869 AUDIO
    TITLE "LR_black_phrase_10_0869"
    INDEX 01 19:49:27
  TRACK 870 AUDIO
    TITLE "LR_black_phrase_10_0870"
    INDEX 01 19:49:57
  TRACK 871 AUDIO
    TITLE "LR_black_phrase_10_0871"
    INDEX 01 19:51:52
  TRACK 872 AUDIO
    TITLE "LR_black_phrase_10_0872"
    INDEX 01 19:52:53
  TRACK 873 AUDIO
    TITLE "LR_black_phrase_10_0873"
    INDEX 01 19:53:56
  TRACK 874 AUDIO
    TITLE "LR_black_phrase_10_0874"
    INDEX 01 19:54:20
  TRACK 875 AUDIO
    TITLE "LR_black_phrase_10_0875"
    INDEX 01 19:56:39
  TRACK 876 AUDIO
    TITLE "LR_black_phrase_10_0876"
    INDEX 01 19:57:40
  TRACK 877 AUDIO
    TITLE "LR_black_phrase_10_0877"
    INDEX 01 20:00:13
  TRACK 878 AUDIO
    TITLE "LR_black_phrase_10_0878"
    INDEX 01 20:00:52
  TRACK 879 AUDIO
    TITLE "LR_black_phrase_10_0879"
    INDEX 01 20:03:21
  TRACK 880 AUDIO
    TITLE "LR_black_phrase_10_0880"
    INDEX 01 20:03:51
  TRACK 881 AUDIO
    TITLE "LR_black_phrase_10_0881"
    INDEX 01 20:06:20
  TRACK 882 AUDIO
    TITLE "LR_black_phrase_10_0882"
    INDEX 01 20:07:23
  TRACK 883 AUDIO
    TITLE "LR_black_phrase_10_0883"
    INDEX 01 20:08:58
  TRACK 884 AUDIO
    TITLE "LR_black_phrase_10_0884"
    INDEX 01 20:09:20
  TRACK 885 AUDIO
    TITLE "LR_black_phrase_10_0885"
    INDEX 01 20:10:67
  TRACK 886 AUDIO
    TITLE "LR_black_phrase_10_0886"
    INDEX 01 20:11:58
  TRACK 887 AUDIO
    TITLE "LR_black_phrase_10_0887"
    INDEX 01 20:13:63
  TRACK 888 AUDIO
    TITLE "LR_black_phrase_10_0888"
    INDEX 01 20:14:25
  TRACK 889 AUDIO
    TITLE "LR_black_phrase_10_0889"
    INDEX 01 20:17:18
  TRACK 890 AUDIO
    TITLE "LR_black_phrase_10_0890"
    INDEX 01 20:17:47
  TRACK 891 AUDIO
    TITLE "LR_black_phrase_10_0891"
    INDEX 01 20:20:37
  TRACK 892 AUDIO
    TITLE "LR_black_phrase_10_0892"
    INDEX 01 20:21:41
  TRACK 893 AUDIO
    TITLE "LR_black_phrase_10_0893"
    INDEX 01 20:22:54
  TRACK 894 AUDIO
    TITLE "LR_black_phrase_10_0894"
    INDEX 01 20:23:18
  TRACK 895 AUDIO
    TITLE "LR_black_phrase_10_0895"
    INDEX 01 20:25:41
  TRACK 896 AUDIO
    TITLE "LR_black_phrase_10_0896"
    INDEX 01 20:26:34
  TRACK 897 AUDIO
    TITLE "LR_black_phrase_10_0897"
    INDEX 01 20:28:17
  TRACK 898 AUDIO
    TITLE "LR_black_phrase_10_0898"
    INDEX 01 20:28:57
  TRACK 899 AUDIO
    TITLE "LR_black_phrase_10_0899"
    INDEX 01 20:30:42
  TRACK 900 AUDIO
    TITLE "LR_black_phrase_10_0900"
    INDEX 01 20:30:73
  TRACK 901 AUDIO
    TITLE "LR_black_phrase_10_0901"
    INDEX 01 20:32:60
  TRACK 902 AUDIO
    TITLE "LR_black_phrase_10_0902"
    INDEX 01 20:33:66
  TRACK 903 AUDIO
    TITLE "LR_black_phrase_10_0903"
    INDEX 01 20:34:71
  TRACK 904 AUDIO
    TITLE "LR_black_phrase_10_0904"
    INDEX 01 20:35:29
  TRACK 905 AUDIO
    TITLE "LR_black_phrase_10_0905"
    INDEX 01 20:37:67
  TRACK 906 AUDIO
    TITLE "LR_black_phrase_10_0906"
    INDEX 01 20:38:69
  TRACK 907 AUDIO
    TITLE "LR_black_phrase_10_0907"
    INDEX 01 20:41:16
  TRACK 908 AUDIO
    TITLE "LR_black_phrase_10_0908"
    INDEX 01 20:41:51
  TRACK 909 AUDIO
    TITLE "LR_black_phrase_10_0909"
    INDEX 01 20:43:72
  TRACK 910 AUDIO
    TITLE "LR_black_phrase_10_0910"
    INDEX 01 20:44:30
  TRACK 911 AUDIO
    TITLE "LR_black_phrase_10_0911"
    INDEX 01 20:46:49
  TRACK 912 AUDIO
    TITLE "LR_black_phrase_10_0912"
    INDEX 01 20:47:56
  TRACK 913 AUDIO
    TITLE "LR_black_phrase_10_0913"
    INDEX 01 20:48:69
  TRACK 914 AUDIO
    TITLE "LR_black_phrase_10_0914"
    INDEX 01 20:49:31
  TRACK 915 AUDIO
    TITLE "LR_black_phrase_10_0915"
    INDEX 01 20:51:56
  TRACK 916 AUDIO
    TITLE "LR_black_phrase_10_0916"
    INDEX 01 20:52:55
  TRACK 917 AUDIO
    TITLE "LR_black_phrase_10_0917"
    INDEX 01 20:54:27
  TRACK 918 AUDIO
    TITLE "LR_black_phrase_10_0918"
    INDEX 01 20:54:60
  TRACK 919 AUDIO
    TITLE "LR_black_phrase_10_0919"
    INDEX 01 20:56:53
  TRACK 920 AUDIO
    TITLE "LR_black_phrase_10_0920"
    INDEX 01 20:57:15
  TRACK 921 AUDIO
    TITLE "LR_black_phrase_10_0921"
    INDEX 01 20:59:06
  TRACK 922 AUDIO
    TITLE "LR_black_phrase_10_0922"
    INDEX 01 21:00:21
  TRACK 923 AUDIO
    TITLE "LR_black_phrase_10_0923"
    INDEX 01 21:01:25
  TRACK 924 AUDIO
    TITLE "LR_black_phrase_10_0924"
    INDEX 01 21:01:60
  TRACK 925 AUDIO
    TITLE "LR_black_phrase_10_0925"
    INDEX 01 21:04:49
  TRACK 926 AUDIO
    TITLE "LR_black_phrase_10_0926"
    INDEX 01 21:05:46
  TRACK 927 AUDIO
    TITLE "LR_black_phrase_10_0927"
    INDEX 01 21:07:43
  TRACK 928 AUDIO
    TITLE "LR_black_phrase_10_0928"
    INDEX 01 21:08:03
  TRACK 929 AUDIO
    TITLE "LR_black_phrase_10_0929"
    INDEX 01 21:09:71
  TRACK 930 AUDIO
    TITLE "LR_black_phrase_10_0930"
    INDEX 01 21:10:20
  TRACK 931 AUDIO
    TITLE "LR_black_phrase_10_0931"
    INDEX 01 21:12:11
  TRACK 932 AUDIO
    TITLE "LR_black_phrase_10_0932"
    INDEX 01 21:13:08
  TRACK 933 AUDIO
    TITLE "LR_black_phrase_10_0933"
    INDEX 01 21:14:23
  TRACK 934 AUDIO
    TITLE "LR_black_phrase_10_0934"
    INDEX 01 21:14:59
  TRACK 935 AUDIO
    TITLE "LR_black_phrase_10_0935"
    INDEX 01 21:16:30
  TRACK 936 AUDIO
    TITLE "LR_black_phrase_10_0936"
    INDEX 01 21:17:30
  TRACK 937 AUDIO
    TITLE "LR_black_phrase_10_0937"
    INDEX 01 21:19:42
  TRACK 938 AUDIO
    TITLE "LR_black_phrase_10_0938"
    INDEX 01 21:20:01
  TRACK 939 AUDIO
    TITLE "LR_black_phrase_10_0939"
    INDEX 01 21:22:01
  TRACK 940 AUDIO
    TITLE "LR_black_phrase_10_0940"
    INDEX 01 21:22:31
  TRACK 941 AUDIO
    TITLE "LR_black_phrase_10_0941"
    INDEX 01 21:24:32
  TRACK 942 AUDIO
    TITLE "LR_black_phrase_10_0942"
    INDEX 01 21:25:37
  TRACK 943 AUDIO
    TITLE "LR_black_phrase_10_0943"
    INDEX 01 21:26:40
  TRACK 944 AUDIO
    TITLE "LR_black_phrase_10_0944"
    INDEX 01 21:27:06
  TRACK 945 AUDIO
    TITLE "LR_black_phrase_10_0945"
    INDEX 01 21:29:13
  TRACK 946 AUDIO
    TITLE "LR_black_phrase_10_0946"
    INDEX 01 21:30:15
  TRACK 947 AUDIO
    TITLE "LR_black_phrase_10_0947"
    INDEX 01 21:31:47
  TRACK 948 AUDIO
    TITLE "LR_black_phrase_10_0948"
    INDEX 01 21:32:12
  TRACK 949 AUDIO
    TITLE "LR_black_phrase_10_0949"
    INDEX 01 21:33:70
  TRACK 950 AUDIO
    TITLE "LR_black_phrase_10_0950"
    INDEX 01 21:34:22
  TRACK 951 AUDIO
    TITLE "LR_black_phrase_10_0951"
    INDEX 01 21:36:05
  TRACK 952 AUDIO
    TITLE "LR_black_phrase_10_0952"
    INDEX 01 21:37:01
  TRACK 953 AUDIO
    TITLE "LR_black_phrase_10_0953"
    INDEX 01 21:38:16
  TRACK 954 AUDIO
    TITLE "LR_black_phrase_10_0954"
    INDEX 01 21:38:53
  TRACK 955 AUDIO
    TITLE "LR_black_phrase_10_0955"
    INDEX 01 21:41:22
  TRACK 956 AUDIO
    TITLE "LR_black_phrase_10_0956"
    INDEX 01 21:42:20
  TRACK 957 AUDIO
    TITLE "LR_black_phrase_10_0957"
    INDEX 01 21:44:13
  TRACK 958 AUDIO
    TITLE "LR_black_phrase_10_0958"
    INDEX 01 21:44:46
  TRACK 959 AUDIO
    TITLE "LR_black_phrase_10_0959"
    INDEX 01 21:46:63
  TRACK 960 AUDIO
    TITLE "LR_black_phrase_10_0960"
    INDEX 01 21:47:09
  TRACK 961 AUDIO
    TITLE "LR_black_phrase_10_0961"
    INDEX 01 21:49:24
  TRACK 962 AUDIO
    TITLE "LR_black_phrase_10_0962"
    INDEX 01 21:50:21
  TRACK 963 AUDIO
    TITLE "LR_black_phrase_10_0963"
    INDEX 01 21:51:40
  TRACK 964 AUDIO
    TITLE "LR_black_phrase_10_0964"
    INDEX 01 21:52:02
  TRACK 965 AUDIO
    TITLE "LR_black_phrase_10_0965"
    INDEX 01 21:54:50
  TRACK 966 AUDIO
    TITLE "LR_black_phrase_10_0966"
    INDEX 01 21:55:52
  TRACK 967 AUDIO
    TITLE "LR_black_phrase_10_0967"
    INDEX 01 21:57:35
  TRACK 968 AUDIO
    TITLE "LR_black_phrase_10_0968"
    INDEX 01 21:57:68
  TRACK 969 AUDIO
    TITLE "LR_black_phrase_10_0969"
    INDEX 01 21:59:65
  TRACK 970 AUDIO
    TITLE "LR_black_phrase_10_0970"
    INDEX 01 22:00:16
  TRACK 971 AUDIO
    TITLE "LR_black_phrase_10_0971"
    INDEX 01 22:02:11
  TRACK 972 AUDIO
    TITLE "LR_black_phrase_10_0972"
    INDEX 01 22:03:08
  TRACK 973 AUDIO
    TITLE "LR_black_phrase_10_0973"
    INDEX 01 22:04:33
  TRACK 974 AUDIO
    TITLE "LR_black_phrase_10_0974"
    INDEX 01 22:04:68
  TRACK 975 AUDIO
    TITLE "LR_black_phrase_10_0975"
    INDEX 01 22:06:73
  TRACK 976 AUDIO
    TITLE "LR_black_phrase_10_0976"
    INDEX 01 22:08:00
  TRACK 977 AUDIO
    TITLE "LR_black_phrase_10_0977"
    INDEX 01 22:10:08
  TRACK 978 AUDIO
    TITLE "LR_black_phrase_10_0978"
    INDEX 01 22:10:45
  TRACK 979 AUDIO
    TITLE "LR_black_phrase_10_0979"
    INDEX 01 22:13:01
  TRACK 980 AUDIO
    TITLE "LR_black_phrase_10_0980"
    INDEX 01 22:13:28
  TRACK 981 AUDIO
    TITLE "LR_black_phrase_10_0981"
    INDEX 01 22:15:58
  TRACK 982 AUDIO
    TITLE "LR_black_phrase_10_0982"
    INDEX 01 22:16:62
  TRACK 983 AUDIO
    TITLE "LR_black_phrase_10_0983"
    INDEX 01 22:17:65
  TRACK 984 AUDIO
    TITLE "LR_black_phrase_10_0984"
    INDEX 01 22:18:27
  TRACK 985 AUDIO
    TITLE "LR_black_phrase_10_0985"
    INDEX 01 22:21:28
  TRACK 986 AUDIO
    TITLE "LR_black_phrase_10_0986"
    INDEX 01 22:22:25
  TRACK 987 AUDIO
    TITLE "LR_black_phrase_10_0987"
    INDEX 01 22:24:30
  TRACK 988 AUDIO
    TITLE "LR_black_phrase_10_0988"
    INDEX 01 22:24:63
  TRACK 989 AUDIO
    TITLE "LR_black_phrase_10_0989"
    INDEX 01 22:26:27
  TRACK 990 AUDIO
    TITLE "LR_black_phrase_10_0990"
    INDEX 01 22:26:50
  TRACK 991 AUDIO
    TITLE "LR_black_phrase_10_0991"
    INDEX 01 22:28:16
  TRACK 992 AUDIO
    TITLE "LR_black_phrase_10_0992"
    INDEX 01 22:29:13
  TRACK 993 AUDIO
    TITLE "LR_black_phrase_10_0993"
    INDEX 01 22:30:25
  TRACK 994 AUDIO
    TITLE "LR_black_phrase_10_0994"
    INDEX 01 22:30:60
  TRACK 995 AUDIO
    TITLE "LR_black_phrase_10_0995"
    INDEX 01 22:33:37
  TRACK 996 AUDIO
    TITLE "LR_black_phrase_10_0996"
    INDEX 01 22:34:32
  TRACK 997 AUDIO
    TITLE "LR_black_phrase_10_0997"
    INDEX 01 22:36:60
  TRACK 998 AUDIO
    TITLE "LR_black_phrase_10_0998"
    INDEX 01 22:37:19
  TRACK 999 AUDIO
    TITLE "LR_black_phrase_10_0999"
    INDEX 01 22:39:47
  TRACK 1000 AUDIO
    TITLE "LR_black_phrase_10_1000"
    INDEX 01 22:39:71
  TRACK 1001 AUDIO
    TITLE "LR_black_phrase_10_1001"
    INDEX 01 22:42:26
